<svg width="2000" height="1823" viewBox="0 0 2000 1823" fill="none" xmlns="http://www.w3.org/2000/svg">
<path d="M1616.35 704.39L572.509 455.578C439.58 410.887 306.161 440.829 274.511 522.455L169.296 743.803C137.646 825.429 219.749 927.828 352.678 972.519L1396.51 1221.33C1529.44 1266.02 1662.86 1236.08 1694.51 1154.45L1799.73 933.106C1831.38 851.48 1749.28 749.081 1616.35 704.39Z" fill="url(#paint0_linear_1_336)"/>
<mask id="mask0_1_336" style="mask-type:alpha" maskUnits="userSpaceOnUse" x="116" y="447" width="1360" height="1359">
<g clip-path="url(#clip0_1_336)">
<path d="M931.108 1670.41C871.946 1685.3 810.42 1688.3 750.091 1679.24C689.763 1670.18 631.832 1649.24 579.652 1617.64L463.087 1547.52C357.611 1483.98 281.677 1381.17 251.974 1261.67C222.27 1142.18 241.227 1015.77 304.678 910.247L374.799 793.683C438.304 688.169 541.124 612.202 660.64 582.493C780.156 552.785 906.578 571.769 1012.1 635.269L1128.62 705.396C1234.13 768.904 1310.09 871.72 1339.8 991.228C1369.51 1110.74 1350.52 1237.15 1287.03 1342.67L1216.87 1459.24C1185.56 1511.58 1144.19 1557.2 1095.14 1593.44C1046.08 1629.69 990.334 1655.85 931.108 1670.41ZM661.632 586.321C602.898 600.759 547.61 626.7 498.967 662.643C450.323 698.586 409.29 743.818 378.241 795.722L308.11 912.247C245.196 1016.88 226.398 1142.21 255.85 1260.69C285.301 1379.17 360.591 1481.11 465.173 1544.11L581.7 1614.23C633.503 1645.41 690.939 1666.08 750.73 1675.06C810.521 1684.04 871.495 1681.15 930.171 1666.57C988.848 1651.98 1044.08 1625.98 1092.7 1590.05C1141.33 1554.12 1182.41 1508.97 1213.58 1457.17L1283.71 1340.64C1346.66 1236.02 1365.48 1110.68 1336.02 992.187C1306.57 873.696 1231.26 771.754 1126.65 708.781L1010.09 638.663C958.351 607.331 900.915 586.573 841.103 577.588C781.29 568.603 720.29 571.572 661.632 586.321Z" fill="#47BA5D" fill-opacity="0.35"/>
<path d="M921.565 1632.02C867.449 1645.63 811.171 1648.37 755.989 1640.08C700.807 1631.8 647.816 1612.64 600.086 1583.74L483.521 1513.62C387.032 1455.49 317.568 1361.44 290.395 1252.12C263.222 1142.8 280.563 1027.17 338.606 930.632L408.727 814.068C437.492 766.273 475.39 724.611 520.257 691.461C565.124 658.311 616.081 634.322 670.219 620.865C724.357 607.408 780.615 604.746 835.781 613.03C890.947 621.315 943.942 640.384 991.738 669.148L1108.28 739.352C1204.8 797.444 1274.29 891.495 1301.47 1000.82C1328.64 1110.14 1311.27 1225.78 1253.19 1322.3L1183.03 1438.88C1154.38 1486.75 1116.52 1528.48 1071.64 1561.63C1026.76 1594.78 975.75 1618.71 921.565 1632.02ZM671.175 624.711C617.488 637.909 566.95 661.621 522.485 694.475C478.021 727.329 440.513 768.674 412.131 816.117L342.115 932.613C284.608 1028.26 267.427 1142.82 294.348 1251.12C321.269 1359.42 390.089 1452.6 485.684 1510.19L602.212 1580.32C649.564 1608.82 702.066 1627.71 756.72 1635.92C811.375 1644.13 867.111 1641.49 920.746 1628.16C974.382 1614.82 1024.87 1591.06 1069.32 1558.21C1113.77 1525.37 1151.31 1484.1 1179.81 1436.74L1249.94 1320.22C1307.47 1224.58 1324.66 1110.01 1297.74 1001.7C1270.82 893.395 1201.98 800.212 1106.37 742.64L989.804 672.523C942.497 643.874 889.976 624.896 835.282 616.689C780.587 608.482 724.808 611.209 671.175 624.711Z" fill="#47BA5D" fill-opacity="0.35"/>
<path d="M912.022 1593.63C862.946 1605.98 811.909 1608.46 761.866 1600.94C711.823 1593.43 663.768 1576.06 620.483 1549.85L503.916 1479.73C416.422 1427.01 353.436 1341.71 328.794 1242.58C304.152 1143.44 319.87 1038.58 372.495 951.026L442.626 834.501C468.709 791.151 503.076 753.364 543.764 723.298C584.453 693.231 630.667 671.474 679.765 659.269C728.864 647.065 779.886 644.652 829.916 652.168C879.947 659.684 928.007 676.983 971.351 703.075L1087.88 773.202C1175.41 825.884 1238.43 911.177 1263.07 1010.32C1287.72 1109.46 1271.97 1214.34 1219.29 1301.87L1149.17 1418.43C1123.18 1461.86 1088.85 1499.71 1048.14 1529.78C1007.43 1559.85 961.17 1581.56 912.022 1593.63ZM680.717 663.101C632.077 675.058 586.29 696.541 546.005 726.307C505.72 756.072 471.736 793.529 446.02 836.511L375.735 953.074C323.647 1039.73 308.088 1143.52 332.478 1241.64C356.868 1339.76 419.211 1424.18 505.811 1476.37L622.339 1546.49C708.985 1598.63 812.794 1614.22 910.933 1589.83C1009.07 1565.43 1093.5 1503.05 1145.65 1416.41L1215.78 1299.89C1267.91 1213.24 1283.5 1109.44 1259.1 1011.31C1234.71 913.175 1172.34 828.749 1085.71 776.596L969.178 706.469C926.348 680.536 878.803 663.351 829.29 655.907C779.777 648.463 729.28 650.908 680.717 663.101Z" fill="#47BA5D" fill-opacity="0.35"/>
<path d="M902.479 1555.24C858.442 1566.31 812.648 1568.54 767.745 1561.8C722.841 1555.06 679.721 1539.48 640.878 1515.96L524.312 1445.84C445.805 1398.53 389.289 1321.99 367.177 1233.04C345.066 1144.08 359.167 1049.99 406.384 971.421L476.515 854.896C499.918 815.996 530.757 782.087 567.268 755.107C603.779 728.126 645.248 708.603 689.305 697.651C733.363 686.7 779.147 684.535 824.041 691.28C868.936 698.025 912.061 713.549 950.955 736.964L1067.48 807.091C1146.03 854.362 1202.57 930.898 1224.69 1019.86C1246.8 1108.82 1232.67 1202.93 1185.4 1281.47L1115.26 1397.96C1091.96 1436.95 1061.15 1470.92 1024.63 1497.92C988.102 1524.92 946.585 1544.4 902.479 1555.24ZM690.26 701.491C646.666 712.208 605.629 731.462 569.524 758.139C533.418 784.815 502.959 818.385 479.909 856.906L409.778 973.431C363.097 1051.1 349.155 1144.12 371.014 1232.06C392.874 1320 448.747 1395.67 526.36 1442.44L642.888 1512.57C681.337 1535.71 723.966 1551.05 768.343 1557.71C812.72 1564.37 857.976 1562.23 901.525 1551.41C945.075 1540.58 986.066 1521.28 1022.16 1494.62C1058.25 1467.95 1088.74 1434.44 1111.88 1395.99L1182.05 1279.46C1228.77 1201.8 1242.73 1108.76 1220.87 1020.81C1199.01 932.857 1143.11 857.189 1065.46 810.446L948.935 740.319C910.526 717.07 867.887 701.668 823.486 695.003C779.085 688.338 733.803 690.543 690.26 701.491Z" fill="#47BA5D" fill-opacity="0.35"/>
<path d="M892.937 1516.85C853.94 1526.66 813.386 1528.64 773.621 1522.67C733.857 1516.7 695.671 1502.9 661.275 1482.07L544.737 1411.91C475.213 1370.02 425.162 1302.24 405.581 1223.47C386.001 1144.7 398.493 1061.37 440.312 991.806L510.482 875.272C531.203 840.823 558.509 810.795 590.839 786.902C623.17 763.009 659.891 745.72 698.905 736.022C737.919 726.324 778.461 724.408 818.216 730.382C857.971 736.357 896.158 750.106 930.597 770.843L1047.13 840.97C1116.67 882.839 1166.75 950.616 1186.33 1029.4C1205.91 1108.18 1193.4 1191.51 1151.55 1261.07L1081.42 1377.6C1060.77 1412.12 1033.49 1442.21 1001.13 1466.11C968.778 1490.01 932.003 1507.26 892.937 1516.85ZM699.803 739.881C661.264 749.364 624.987 766.39 593.068 789.975C561.148 813.561 534.219 843.238 513.837 877.291L443.715 993.855C402.465 1062.52 390.15 1144.75 409.473 1222.48C428.796 1300.22 478.177 1367.11 546.776 1408.47L663.342 1478.58C731.992 1519.89 814.242 1532.24 891.999 1512.92C969.755 1493.59 1036.65 1444.16 1077.97 1375.52L1148.09 1258.96C1189.4 1190.31 1201.75 1108.06 1182.43 1030.31C1163.1 952.552 1113.68 885.66 1045.03 844.344L928.492 774.179C894.531 753.634 856.834 740.025 817.581 734.138C778.328 728.251 738.297 730.203 699.803 739.881Z" fill="#47BA5D" fill-opacity="0.35"/>
<path d="M883.394 1478.46C849.434 1487.01 814.117 1488.73 779.488 1483.52C744.859 1478.32 711.608 1466.29 681.661 1448.15L565.133 1378.02C504.603 1341.53 461.03 1282.51 443.98 1213.92C426.931 1145.34 437.8 1072.78 474.201 1012.2L544.37 895.83C562.416 865.835 586.195 839.689 614.348 818.885C642.501 798.081 674.477 783.027 708.449 774.583C742.421 766.138 777.724 764.469 812.341 769.67C846.958 774.871 880.211 786.84 910.201 804.895L1026.73 875.022C1087.29 911.48 1130.89 970.5 1147.94 1039.1C1165 1107.7 1154.1 1180.27 1117.66 1240.84L1047.53 1357.36C1029.54 1387.4 1005.76 1413.56 977.589 1434.35C949.416 1455.14 917.4 1470.13 883.394 1478.46ZM709.345 778.271C675.844 786.516 644.31 801.319 616.564 821.824C588.818 842.329 565.412 868.129 547.697 897.734L477.585 1014.34C441.731 1074.02 431.027 1145.5 447.824 1213.07C464.62 1280.64 507.544 1338.79 567.172 1374.74L683.737 1444.86C743.406 1480.76 814.895 1491.5 882.478 1474.7C950.061 1457.9 1008.2 1414.94 1044.12 1355.28L1114.24 1238.71C1150.14 1179.05 1160.88 1107.56 1144.08 1039.98C1127.28 972.399 1084.33 914.259 1024.66 878.348L908.133 808.221C878.622 790.341 845.859 778.488 811.738 773.347C777.617 768.206 742.815 769.88 709.345 778.271Z" fill="#47BA5D" fill-opacity="0.35"/>
<path d="M873.851 1440.07C844.931 1447.34 814.856 1448.81 785.367 1444.37C755.879 1439.94 727.562 1429.71 702.057 1414.26L585.529 1344.13C533.978 1313.06 496.867 1262.8 482.347 1204.39C467.828 1145.97 477.087 1084.19 508.09 1032.6L578.193 915.956C593.557 890.413 613.804 868.147 637.776 850.431C661.748 832.714 688.976 819.894 717.904 812.704C746.832 805.513 776.894 804.092 806.371 808.522C835.849 812.953 864.164 823.148 889.7 838.524L1006.27 908.641C1057.83 939.697 1094.96 989.959 1109.48 1048.38C1124 1106.8 1114.73 1168.59 1083.7 1220.18L1013.57 1336.7C998.281 1362.32 978.056 1384.65 954.072 1402.39C930.088 1420.14 902.821 1432.94 873.851 1440.07ZM718.888 816.661C690.433 823.664 663.648 836.237 640.082 853.653C616.515 871.07 596.633 892.984 581.586 918.129L511.455 1034.65C481.009 1085.35 471.921 1146.05 486.186 1203.43C500.45 1260.82 536.902 1310.2 587.539 1340.74L704.114 1410.89C729.207 1426 757.03 1436.01 785.995 1440.36C814.959 1444.72 844.497 1443.32 872.922 1436.25C901.346 1429.19 928.101 1416.59 951.657 1399.19C975.212 1381.78 995.108 1359.9 1010.21 1334.81L1080.34 1218.28C1110.84 1167.6 1119.96 1106.88 1105.69 1049.48C1091.42 992.082 1054.93 942.699 1004.26 912.198L887.728 842.071C862.665 826.878 834.837 816.809 805.854 812.447C776.872 808.085 747.313 809.517 718.888 816.661Z" fill="#47BA5D" fill-opacity="0.35"/>
<path d="M864.309 1401.68C840.429 1407.69 815.595 1408.89 791.245 1405.23C766.896 1401.58 743.514 1393.12 722.453 1380.37L605.925 1310.24C563.381 1284.57 532.756 1243.08 520.77 1194.86C508.784 1146.64 516.415 1095.63 541.989 1053.03L612.111 936.466C624.8 915.376 641.519 896.993 661.314 882.366C681.109 867.738 703.592 857.154 727.478 851.216C751.364 845.279 776.186 844.105 800.526 847.762C824.865 851.418 848.246 859.834 869.333 872.527L985.898 942.645C1028.47 968.292 1059.11 1009.79 1071.1 1058.02C1083.09 1106.25 1075.44 1157.26 1049.83 1199.86L979.675 1316.43C967.032 1337.56 950.327 1355.97 930.525 1370.6C910.723 1385.24 888.218 1395.8 864.309 1401.68ZM728.431 855.05C705.026 860.807 682.996 871.148 663.614 885.474C644.232 899.8 627.883 917.828 615.514 938.514L545.345 1055.05C520.318 1096.76 512.852 1146.68 524.585 1193.89C536.319 1241.09 566.293 1281.71 607.935 1306.85L724.501 1376.97C745.142 1389.4 768.031 1397.64 791.86 1401.23C815.689 1404.81 839.991 1403.66 863.376 1397.85C886.761 1392.04 908.772 1381.67 928.149 1367.35C947.527 1353.03 963.893 1335.02 976.31 1314.37L1046.44 1197.85C1071.52 1156.15 1079.02 1106.21 1067.28 1058.99C1055.54 1011.77 1025.53 971.146 983.85 946.048L867.323 875.921C846.702 863.433 823.808 855.158 799.967 851.576C776.127 847.993 751.812 849.174 728.431 855.05Z" fill="#47BA5D" fill-opacity="0.35"/>
<path d="M854.766 1363.3C835.926 1368.03 816.334 1368.98 797.123 1366.1C777.913 1363.21 759.465 1356.54 742.849 1346.48L626.321 1276.35C592.752 1256.1 568.588 1223.35 559.13 1185.3C549.672 1147.25 555.692 1107 575.869 1073.39L646 956.861C656.01 940.221 669.201 925.716 684.818 914.175C700.435 902.634 718.173 894.283 737.019 889.599C755.864 884.914 775.448 883.988 794.651 886.874C813.854 889.76 832.301 896.4 848.937 906.416L965.503 976.534C999.089 996.777 1023.27 1029.52 1032.73 1067.58C1042.19 1105.63 1036.15 1145.89 1015.95 1179.5L945.786 1296.04C935.817 1312.71 922.64 1327.24 907.016 1338.79C891.392 1350.33 873.633 1358.66 854.766 1363.3ZM737.974 893.441C719.616 897.957 702.336 906.069 687.133 917.307C671.931 928.544 659.107 942.684 649.404 958.909L579.273 1075.43C559.621 1108.15 553.754 1147.32 562.96 1184.35C572.165 1221.38 595.69 1253.25 628.37 1272.95L744.897 1343.08C761.089 1352.83 779.044 1359.29 797.735 1362.1C816.426 1364.91 835.488 1364.01 853.831 1359.45C872.175 1354.89 889.44 1346.76 904.64 1335.53C919.841 1324.29 932.678 1310.18 942.42 1293.98L1012.55 1177.45C1032.22 1144.75 1038.1 1105.57 1028.9 1068.53C1019.69 1031.49 996.151 999.625 963.455 979.937L846.927 909.81C830.749 900.017 812.79 893.529 794.089 890.719C775.388 887.909 756.315 888.834 737.974 893.441Z" fill="#47BA5D" fill-opacity="0.35"/>
<path d="M845.224 1324.91C831.431 1328.38 817.087 1329.09 803.019 1326.99C788.951 1324.89 775.439 1320.02 763.264 1312.67L646.736 1242.54C622.141 1227.71 604.436 1203.73 597.508 1175.86C590.581 1147.99 594.997 1118.51 609.787 1093.9L679.909 977.333C694.722 952.722 718.705 935.002 746.582 928.073C774.459 921.143 803.947 925.571 828.56 940.382L945.097 1010.55C969.709 1025.36 987.428 1049.34 994.357 1077.22C1001.29 1105.09 996.858 1134.58 982.046 1159.19L911.915 1275.72C904.603 1287.92 894.944 1298.55 883.496 1306.99C872.049 1315.43 859.04 1321.52 845.224 1324.91ZM747.516 931.831C734.205 935.107 721.676 940.99 710.653 949.139C699.629 957.287 690.33 967.54 683.293 979.304L613.162 1095.83C598.919 1119.55 594.668 1147.96 601.342 1174.81C608.017 1201.66 625.073 1224.77 648.766 1239.06L765.293 1309.19C777.036 1316.26 790.056 1320.94 803.61 1322.98C817.163 1325.01 830.986 1324.36 844.287 1321.05C857.588 1317.75 870.108 1311.85 881.131 1303.71C892.154 1295.56 901.465 1285.33 908.531 1273.58L978.662 1157.06C992.916 1133.34 997.173 1104.93 990.498 1078.08C983.822 1051.22 966.76 1028.11 943.058 1013.83L826.579 943.891C814.853 936.753 801.827 932.011 788.256 929.941C774.685 927.871 760.838 928.513 747.516 931.831Z" fill="#47BA5D" fill-opacity="0.35"/>
<path d="M835.671 1286.48C826.914 1288.67 817.809 1289.12 808.88 1287.78C799.951 1286.45 791.373 1283.36 783.641 1278.7L667.113 1208.58C651.497 1199.17 640.254 1183.94 635.856 1166.25C631.458 1148.56 634.264 1129.84 643.658 1114.21L713.788 997.689C723.198 982.073 738.423 970.83 756.117 966.432C773.811 962.034 792.528 964.839 808.154 974.232L924.682 1044.36C940.298 1053.77 951.541 1068.99 955.939 1086.69C960.337 1104.38 957.531 1123.1 948.138 1138.72L878.007 1255.25C873.356 1262.98 867.221 1269.73 859.956 1275.09C852.69 1280.45 844.438 1284.32 835.671 1286.48ZM757.068 970.259C748.81 972.3 741.035 975.951 734.191 981.003C727.346 986.055 721.567 992.408 717.182 999.698L647.051 1116.22C638.205 1130.96 635.565 1148.59 639.71 1165.27C643.855 1181.95 654.447 1196.3 669.162 1205.17L785.689 1275.3C800.414 1284.15 818.048 1286.79 834.718 1282.64C851.389 1278.5 865.733 1267.91 874.603 1253.2L944.773 1136.66C953.598 1121.93 956.227 1104.29 952.083 1087.62C947.939 1070.95 937.361 1056.6 922.662 1047.71L806.077 977.52C798.789 973.142 790.708 970.247 782.297 969.001C773.887 967.755 765.313 968.183 757.068 970.259Z" fill="#47BA5D" fill-opacity="0.35"/>
<path d="M826.138 1248.13C822.418 1249.06 818.55 1249.24 814.757 1248.67C810.965 1248.11 807.321 1246.79 804.037 1244.81L687.615 1174.62C680.997 1170.62 676.235 1164.16 674.369 1156.66C672.504 1149.15 673.688 1141.21 677.662 1134.58L747.793 1018.05C749.762 1014.76 752.363 1011.89 755.447 1009.6C758.531 1007.32 762.036 1005.66 765.761 1004.74C769.486 1003.81 773.357 1003.63 777.152 1004.21C780.947 1004.78 784.591 1006.1 787.873 1008.09L904.171 1078.28C910.796 1082.27 915.566 1088.73 917.432 1096.24C919.298 1103.74 918.108 1111.69 914.124 1118.32L844.002 1234.88C840.038 1241.49 833.613 1246.25 826.138 1248.13ZM766.602 1008.61C763.385 1009.41 760.358 1010.83 757.693 1012.8C755.028 1014.78 752.778 1017.25 751.072 1020.09L680.95 1136.66C677.514 1142.38 676.487 1149.23 678.098 1155.71C679.708 1162.19 683.823 1167.76 689.539 1171.21L806.066 1241.33C811.788 1244.77 818.64 1245.8 825.118 1244.19C831.596 1242.58 837.171 1238.46 840.618 1232.75L910.788 1116.21C914.193 1110.48 915.2 1103.64 913.593 1097.17C911.985 1090.7 907.891 1085.13 902.199 1081.66L785.662 1011.49C782.832 1009.78 779.692 1008.64 776.42 1008.15C773.149 1007.65 769.812 1007.81 766.602 1008.61Z" fill="#47BA5D" fill-opacity="0.35"/>
<path d="M815.556 1205.55L716.812 1146.13L776.23 1047.35L875.022 1106.8L815.556 1205.55ZM722.225 1144.78L814.21 1200.14L869.57 1108.15L777.576 1052.76L722.225 1144.78Z" fill="#47BA5D" fill-opacity="0.35"/>
</g>
</mask>
<g mask="url(#mask0_1_336)">
<path d="M1619.84 703.39L566.511 454.454C433.581 409.763 300.163 439.705 268.512 521.331L163.297 742.679C131.647 824.305 213.75 926.704 346.68 971.395L1400.01 1220.33C1532.94 1265.02 1661.36 1233.08 1693.01 1151.45L1799.23 937.106C1830.88 855.48 1752.77 748.081 1619.84 703.39Z" fill="#47BA5D"/>
</g>
<defs>
<linearGradient id="paint0_linear_1_336" x1="1071.07" y1="861.347" x2="2415.13" y2="952.055" gradientUnits="userSpaceOnUse">
<stop stop-color="#6BD975"/>
<stop offset="0.978675" stop-color="#0C863D"/>
</linearGradient>
<clipPath id="clip0_1_336">
<rect width="1121" height="1121" fill="white" transform="translate(116.788 717.678) rotate(-13.9592)"/>
</clipPath>
</defs>
</svg>
