<svg width="80" height="80" viewBox="0 0 80 80" fill="none" xmlns="http://www.w3.org/2000/svg">
<circle cx="40" cy="40" r="40" fill="#6BD975"/>
<g clip-path="url(#clip0_1_329)">
<path d="M27.7632 37.592H20.078V51.0823H27.7632V37.592Z" fill="#8797DC"/>
<path d="M59.988 37.592H52.3029V51.0823H59.988V37.592Z" fill="#8797DC"/>
<path d="M56.8545 35.6127H53.2264V31.2259C53.2264 27.7268 51.8363 24.371 49.3621 21.8967C46.8879 19.4225 43.5321 18.0325 40.033 18.0325C36.5338 18.0325 33.178 19.4225 30.7038 21.8967C28.2296 24.371 26.8395 27.7268 26.8395 31.2259V35.6127H23.2113C21.8379 35.6127 20.5208 36.1583 19.5497 37.1294C18.5785 38.1005 18.033 39.4177 18.033 40.7911V48.0475C18.033 49.4209 18.5785 50.738 19.5497 51.7091C20.5208 52.6803 21.8379 53.2259 23.2113 53.2259H28.3238C28.7117 53.2172 29.0808 53.0571 29.3521 52.7797C29.6233 52.5022 29.7752 52.1296 29.7751 51.7416V31.2259C29.6958 29.8277 29.9028 28.428 30.3833 27.1125C30.8638 25.7971 31.6078 24.5936 32.5696 23.5757C33.5315 22.5578 34.691 21.7469 35.9771 21.1927C37.2632 20.6385 38.6489 20.3526 40.0494 20.3526C41.4499 20.3526 42.8356 20.6385 44.1218 21.1927C45.4079 21.7469 46.5674 22.5578 47.5292 23.5757C48.4911 24.5936 49.235 25.7971 49.7156 27.1125C50.1961 28.428 50.403 29.8277 50.3238 31.2259V51.7416C50.3237 52.1296 50.4755 52.5022 50.7468 52.7797C51.0181 53.0571 51.3872 53.2172 51.7751 53.2259H54.7106C54.7106 54.0044 54.4013 54.7511 53.8508 55.3016C53.3003 55.8521 52.5536 56.1614 51.7751 56.1614H44.1889C43.8428 55.1867 43.1634 54.3656 42.2708 53.8431C41.3781 53.3207 40.3295 53.1304 39.3102 53.306C38.2909 53.4816 37.3664 54.0117 36.7 54.8027C36.0336 55.5938 35.6681 56.5948 35.6681 57.6292C35.6681 58.6635 36.0336 59.6646 36.7 60.4556C37.3664 61.2466 38.2909 61.7767 39.3102 61.9523C40.3295 62.1279 41.3781 61.9376 42.2708 61.4152C43.1634 60.8927 43.8428 60.0716 44.1889 59.0969H51.7751C53.3322 59.0969 54.8255 58.4784 55.9265 57.3773C57.0276 56.2763 57.6461 54.783 57.6461 53.2259H56.8875C57.566 53.2259 58.2378 53.0917 58.8642 52.8311C59.4907 52.5704 60.0593 52.1885 60.5376 51.7072C61.0158 51.2259 61.3942 50.6547 61.6508 50.0267C61.9074 49.3986 62.0373 48.7259 62.0329 48.0475V40.7911C62.0373 40.1098 61.9064 39.4345 61.6477 38.8042C61.389 38.174 61.0077 37.6014 60.526 37.1196C60.0443 36.6379 59.4716 36.2566 58.8414 35.9979C58.2111 35.7392 57.5358 35.6083 56.8545 35.6127ZM26.8065 50.2573H23.1784C22.5835 50.2573 22.013 50.021 21.5924 49.6004C21.1718 49.1798 20.9355 48.6093 20.9355 48.0145V40.7581C20.931 40.4623 20.986 40.1687 21.0972 39.8945C21.2083 39.6204 21.3733 39.3714 21.5825 39.1622C21.7917 38.9531 22.0407 38.788 22.3148 38.6769C22.589 38.5657 22.8826 38.5108 23.1784 38.5152H26.8065V50.2573ZM39.9999 59.0639C39.7064 59.0639 39.4194 58.9769 39.1753 58.8138C38.9313 58.6507 38.741 58.4189 38.6287 58.1477C38.5163 57.8765 38.487 57.578 38.5442 57.2901C38.6015 57.0022 38.7429 56.7377 38.9504 56.5302C39.158 56.3226 39.4225 56.1812 39.7104 56.124C39.9983 56.0667 40.2967 56.0961 40.5679 56.2084C40.8392 56.3207 41.071 56.511 41.234 56.7551C41.3971 56.9992 41.4842 57.2861 41.4842 57.5797C41.4886 57.7774 41.4535 57.9739 41.3809 58.1578C41.3082 58.3417 41.1996 58.5093 41.0613 58.6506C40.9231 58.7919 40.758 58.9042 40.5757 58.9809C40.3934 59.0575 40.1977 59.097 39.9999 59.0969V59.0639ZM59.0644 48.0145C59.0645 48.6036 58.8327 49.1692 58.4192 49.5889C58.0057 50.0086 57.4436 50.2487 56.8545 50.2573H53.2264V38.5152H56.8545C57.1475 38.5152 57.4376 38.5734 57.7079 38.6865C57.9782 38.7997 58.2233 38.9654 58.4289 39.1741C58.6346 39.3828 58.7967 39.6303 58.9058 39.9023C59.0149 40.1742 59.0688 40.4651 59.0644 40.7581V48.0145Z" fill="black"/>
<path d="M39.901 62.462C42.5241 62.462 44.6506 60.3355 44.6506 57.7124C44.6506 55.0892 42.5241 52.9628 39.901 52.9628C37.2778 52.9628 35.1514 55.0892 35.1514 57.7124C35.1514 60.3355 37.2778 62.462 39.901 62.462Z" fill="#6BD975"/>
</g>
<defs>
<clipPath id="clip0_1_329">
<rect width="44" height="44.4618" fill="white" transform="translate(18 18)"/>
</clipPath>
</defs>
</svg>
