<svg width="44" height="44" viewBox="0 0 44 44" fill="none" xmlns="http://www.w3.org/2000/svg">
<g clip-path="url(#clip0_1_370)">
<path d="M40.3909 26.7227L33.9599 24.6302V18.7175C33.9727 18.238 33.8893 17.7609 33.7146 17.3142C33.54 16.8675 33.2776 16.4604 32.943 16.1168C32.6083 15.7732 32.2082 15.5001 31.7663 15.3138C31.3244 15.1274 30.8496 15.0314 30.37 15.0316C29.4179 15.0316 28.5048 15.4098 27.8315 16.0831C27.1583 16.7563 26.7801 17.6694 26.7801 18.6215V30.3894L26.5497 30.159C26.0628 29.6697 25.4839 29.2814 24.8464 29.0165C24.2089 28.7516 23.5254 28.6152 22.8351 28.6152C22.1447 28.6152 21.4612 28.7516 20.8237 29.0165C20.1862 29.2814 19.6074 29.6697 19.1204 30.159L18.7173 30.543C18.5214 30.7468 18.4119 31.0185 18.4119 31.3012C18.4119 31.584 18.5214 31.8557 18.7173 32.0595L27.8743 41.3318C28.7499 42.2113 29.7911 42.9084 30.9378 43.3829C32.0846 43.8574 33.314 44.0999 34.555 44.0962H35.2269C37.6269 43.889 39.8613 42.787 41.4865 41.0089C43.1117 39.2308 44.0089 36.9065 44 34.4976V31.906C44.0407 30.7677 43.7108 29.6471 43.06 28.7124C42.4092 27.7777 41.4726 27.0795 40.3909 26.7227ZM28.8726 32.885V18.6599C28.8776 18.2796 29.0309 17.9162 29.2998 17.6473C29.5687 17.3784 29.9321 17.2251 30.3124 17.2201C30.6909 17.2251 31.0522 17.3791 31.3181 17.6485C31.584 17.918 31.733 18.2813 31.733 18.6599V25.3597C31.7373 25.5859 31.8116 25.8052 31.9457 25.9874C32.0798 26.1696 32.267 26.3058 32.4817 26.3772L39.6614 28.7768C40.2793 28.9818 40.8174 29.3754 41.1997 29.9024C41.582 30.4293 41.7892 31.063 41.7923 31.714V34.2288C41.8646 36.1247 41.2089 37.9764 39.9595 39.4042C38.7102 40.832 36.962 41.7277 35.0733 41.9077C34.0172 42.0003 32.9536 41.859 31.9582 41.4941C30.9629 41.1291 30.0601 40.5493 29.3141 39.796L20.9633 31.33C21.5633 30.9124 22.2899 30.7166 23.0185 30.7761C23.747 30.8357 24.4322 31.1469 24.9564 31.6564L27.0681 33.6529C27.2172 33.8049 27.4089 33.9083 27.6179 33.9494C27.8269 33.9905 28.0434 33.9675 28.2391 33.8833C28.4507 33.813 28.6359 33.6797 28.7697 33.5013C28.9035 33.3229 28.9796 33.1079 28.9878 32.885H28.8726Z" fill="#1A1A1A"/>
<path d="M16.452 31.7907C12.5971 31.6805 8.93831 30.066 6.25836 27.2928C3.57841 24.5196 2.09008 20.8077 2.11172 16.9513C2.11172 13.0189 3.67252 9.24737 6.4513 6.46498C9.23009 3.6826 12.9996 2.11691 16.932 2.11182C20.2473 2.1083 23.4676 3.21944 26.0754 5.26667C28.6832 7.3139 30.527 10.1784 31.3107 13.3998C31.3841 13.6749 31.5636 13.9096 31.8098 14.0525C32.0511 14.1998 32.3401 14.2479 32.6161 14.1869C32.8964 14.1142 33.1375 13.9352 33.288 13.6878C33.4306 13.4445 33.472 13.1549 33.4032 12.8815C32.5036 9.19316 30.3905 5.9142 27.4034 3.57115C24.4163 1.2281 20.7284 -0.0430763 16.932 -0.0382554C12.4376 -0.0179675 8.13397 1.78034 4.96135 4.96375C1.78873 8.14716 0.00505836 12.4569 3.14684e-05 16.9513C-0.0118923 21.3583 1.69685 25.5959 4.7625 28.762C7.82814 31.928 12.0085 33.7724 16.4136 33.9024C16.6922 33.9026 16.96 33.7946 17.1606 33.6012C17.3611 33.4078 17.4787 33.1442 17.4887 32.8658C17.4931 32.5769 17.3905 32.2965 17.2007 32.0787C17.1013 31.9833 16.9839 31.9088 16.8554 31.8593C16.7268 31.8099 16.5897 31.7866 16.452 31.7907Z" fill="#1A1A1A"/>
<path d="M17.8342 22.8447H16.1449C15.2225 22.8447 14.4747 23.5925 14.4747 24.5149V26.2042C14.4747 27.1266 15.2225 27.8744 16.1449 27.8744H17.8342C18.7566 27.8744 19.5044 27.1266 19.5044 26.2042V24.5149C19.5044 23.5925 18.7566 22.8447 17.8342 22.8447Z" fill="#8797DC"/>
<path d="M17.8151 24.515H16.1449V26.1851H17.8151V24.515Z" fill="#8797DC"/>
<path d="M16.5672 15.665C15.9062 16.2164 15.3745 16.9062 15.0096 17.6858C14.6446 18.4654 14.4555 19.3156 14.4555 20.1764V20.33C14.4555 20.554 14.5445 20.7688 14.7029 20.9272C14.8613 21.0856 15.0762 21.1746 15.3002 21.1746H18.6405C18.8714 21.1646 19.0891 21.0646 19.247 20.8959C19.4049 20.7272 19.4904 20.5034 19.4852 20.2724C19.4852 20.1504 19.5128 20.0301 19.566 19.9203C19.6192 19.8106 19.6966 19.7144 19.7924 19.6389L22.1536 17.7191C22.8915 17.1091 23.4858 16.3437 23.8939 15.4777C24.3021 14.6116 24.5141 13.6661 24.5149 12.7087C24.5149 10.9725 23.8252 9.30744 22.5975 8.07978C21.3699 6.85212 19.7048 6.16241 17.9686 6.16241H16.1449C14.368 6.16241 12.6639 6.8683 11.4074 8.12476C10.1509 9.38122 9.44507 11.0853 9.44507 12.8623V13.6877C9.44501 13.9085 9.53136 14.1204 9.68564 14.2783C9.83992 14.4362 10.0499 14.5274 10.2705 14.5324H13.6301C13.8507 14.5274 14.0607 14.4362 14.215 14.2783C14.3692 14.1204 14.4556 13.9085 14.4555 13.6877V12.8623C14.4606 12.4175 14.6408 11.9928 14.9571 11.6801C15.2733 11.3674 15.7002 11.1921 16.1449 11.1921H18.0646C18.4465 11.1921 18.8127 11.3438 19.0827 11.6138C19.3527 11.8838 19.5044 12.25 19.5044 12.6319C19.504 12.8412 19.4573 13.0478 19.3677 13.237C19.2781 13.4262 19.1478 13.5932 18.9861 13.7261L16.5672 15.665Z" fill="#6BD975"/>
<path d="M18.0454 9.44499H16.1257C15.2347 9.44499 14.3802 9.79894 13.7501 10.429C13.1201 11.059 12.7662 11.9135 12.7662 12.8045H11.096C11.096 11.4705 11.6259 10.1912 12.5692 9.248C13.5124 8.30475 14.7917 7.77484 16.1257 7.77484H17.9494C19.2393 7.77992 20.4746 8.29589 21.3849 9.20978C22.2952 10.1237 22.8063 11.361 22.8063 12.6509C22.808 13.3622 22.6523 14.0649 22.3502 14.7089C22.0482 15.3528 21.6074 15.9218 21.0594 16.3752L18.6981 18.2949C18.3328 18.5935 18.0654 18.9947 17.9302 19.4467H16.1641C16.3288 18.4484 16.8466 17.5423 17.6231 16.8935L20.0227 14.9738C20.3728 14.6841 20.6543 14.3203 20.8469 13.9087C21.0394 13.497 21.1382 13.0478 21.1361 12.5933C21.1413 11.7667 20.8191 10.9717 20.24 10.3818C19.6609 9.7919 18.872 9.45512 18.0454 9.44499Z" fill="#6BD975"/>
</g>
<defs>
<clipPath id="clip0_1_370">
<rect width="44" height="44" fill="white"/>
</clipPath>
</defs>
</svg>
