<svg width="44" height="54" viewBox="0 0 44 54" fill="none" xmlns="http://www.w3.org/2000/svg">
<g clip-path="url(#clip0_1_395)">
<path d="M33.2519 49.4776H10.7481V53.632H33.2519V49.4776Z" fill="white"/>
<path d="M22.0154 12.3637C19.9595 12.3577 17.948 12.9624 16.2361 14.1013C14.5242 15.2402 13.1888 16.8619 12.3993 18.761C11.6097 20.66 11.4016 22.7507 11.8012 24.7682C12.2008 26.7858 13.1901 28.6392 14.6439 30.0935C16.0976 31.5478 17.9503 32.5376 19.967 32.9374C21.9837 33.3371 24.0736 33.1289 25.9718 32.339C27.8701 31.5491 29.4912 30.2132 30.6296 28.5006C31.768 26.788 32.3725 24.7758 32.3665 22.719C32.3584 19.9751 31.2653 17.3459 29.3258 15.4056C27.3864 13.4654 24.7582 12.3718 22.0154 12.3637Z" fill="#6BD975"/>
<path d="M44 22.8718C43.7879 17.1766 41.3772 11.7854 37.2746 7.83116C33.172 3.87697 27.6969 1.66772 22 1.66772C16.3031 1.66772 10.8281 3.87697 6.72547 7.83116C2.62285 11.7854 0.212126 17.1766 0 22.8718C0 34.8767 20.0611 47.3092 20.916 47.8896C21.2473 48.0878 21.6298 48.1835 22.0153 48.1645C22.3907 48.1793 22.7623 48.0837 23.084 47.8896C23.9695 47.3092 44 34.724 44 22.8718ZM22.0153 43.6436C16.1832 39.7947 4.18324 30.4169 4.18324 22.8718C4.18324 18.1406 6.06196 13.6031 9.40612 10.2575C12.7503 6.91203 17.2859 5.03255 22.0153 5.03255C26.7446 5.03255 31.2803 6.91203 34.6245 10.2575C37.9686 13.6031 39.8473 18.1406 39.8473 22.8718C39.8473 30.2641 27.8473 39.642 22.0153 43.4909V43.6436Z" fill="white"/>
</g>
<defs>
<clipPath id="clip0_1_395">
<rect width="44" height="52.9375" fill="white" transform="translate(0 0.725281)"/>
</clipPath>
</defs>
</svg>
