<svg width="25" height="33" viewBox="0 0 25 33" fill="none" xmlns="http://www.w3.org/2000/svg">
<g clip-path="url(#clip0_1_509)">
<path d="M10.8432 16.8327C10.9482 17.073 10.9939 17.3352 10.9763 17.597C10.9588 17.8588 10.8786 18.1125 10.7425 18.3365L9.20712 20.864L16.5317 28.2188L24.5107 20.2068L8.48977 4.11975L0.510742 12.1317L6.48872 18.147L6.80335 18.4503L7.92343 16.6305C8.08063 16.3716 8.30562 16.1611 8.57385 16.0218C8.84208 15.8826 9.14325 15.8199 9.4445 15.8408C9.74575 15.8617 10.0355 15.9652 10.2822 16.1401C10.5288 16.315 10.7229 16.5546 10.8432 16.8327Z" fill="#CCCCCC"/>
<path d="M3.39277 29.0781H2.13425V27.3973L1.07709 22.5447C0.473004 20.2574 1.79445 17.9574 2.83902 16.4283L3.63189 15.2531L4.53803 16.1629L3.87101 17.1486C2.96487 18.4123 1.81962 20.4343 2.31044 22.2035L3.39277 27.2583V29.0781Z" fill="black"/>
<path d="M13.3602 29.0781H1.16516V32.25H13.3602V29.0781Z" fill="#6BD975"/>
<path d="M11.4599 30.9863H10.2014V32.25H11.4599V30.9863Z" fill="black"/>
<path d="M21.8426 22.8605C21.1546 22.1524 20.7695 21.2023 20.7695 20.213C20.7695 19.2238 21.1546 18.2737 21.8426 17.5656L22.7362 18.4628C22.2863 18.9335 22.035 19.5606 22.035 20.213C22.035 20.8655 22.2863 21.4926 22.7362 21.9633L21.8426 22.8605Z" fill="black"/>
<path d="M18.2937 26.4242C17.8243 25.9687 17.1971 25.714 16.5443 25.714C15.8916 25.714 15.2643 25.9687 14.795 26.4242L13.9518 25.6028C14.6564 24.9157 15.5999 24.5314 16.5821 24.5314C17.5643 24.5314 18.5078 24.9157 19.2124 25.6028L18.2937 26.4242Z" fill="black"/>
<path d="M3.1411 14.7223L2.26013 13.8377C2.7138 13.3664 2.9674 12.7366 2.9674 12.0811C2.9674 11.4256 2.7138 10.7958 2.26013 10.3245L3.1411 9.43994C3.82535 10.1475 4.20809 11.0949 4.20809 12.0811C4.20809 13.0673 3.82535 14.0148 3.1411 14.7223Z" fill="black"/>
<path d="M8.43939 7.91085C7.45328 7.90337 6.50922 7.50876 5.80908 6.81142L6.70263 5.91418C7.17137 6.36599 7.79594 6.61828 8.44568 6.61828C9.09543 6.61828 9.72 6.36599 10.1887 5.91418L11.0823 6.81142C10.379 7.51181 9.42987 7.90667 8.43939 7.91085Z" fill="black"/>
<path d="M12.5045 19.2842V18.0205C12.7525 18.0217 12.9983 17.9731 13.2274 17.8776C13.4564 17.7821 13.6642 17.6417 13.8385 17.4645C14.0162 17.2903 14.1568 17.0819 14.252 16.8516C14.3471 16.6214 14.3949 16.3742 14.3923 16.1249C14.3944 15.8769 14.3477 15.6308 14.2548 15.4009C14.1619 15.1711 14.0247 14.9619 13.8511 14.7854C13.4904 14.4386 13.0102 14.245 12.5108 14.245C12.0114 14.245 11.5312 14.4386 11.1705 14.7854L10.2895 13.8882C10.8885 13.3156 11.6838 12.9963 12.5108 12.9963C13.3378 12.9963 14.1331 13.3156 14.7321 13.8882C15.1732 14.33 15.4738 14.8934 15.5957 15.507C15.7175 16.1206 15.6552 16.7567 15.4166 17.3347C15.178 17.9127 14.7739 18.4065 14.2554 18.7536C13.737 19.1007 13.1276 19.2853 12.5045 19.2842Z" fill="black"/>
<path d="M8.37904 11.1112L7.48914 12.0048L8.37904 12.8983L9.26895 12.0048L8.37904 11.1112Z" fill="black"/>
<path d="M16.8125 19.5655L15.9226 20.4591L16.8125 21.3527L17.7024 20.4591L16.8125 19.5655Z" fill="black"/>
<path d="M11.2334 4.54937L8.48979 1.78184L5.74621 4.54937L4.85266 3.65214L8.48979 0L12.1269 3.65214L11.2334 4.54937Z" fill="black"/>
<path d="M10.0252 25.7545L8.91767 25.2995C9.12546 24.7184 9.18366 24.094 9.08685 23.4842C8.99004 22.8744 8.74137 22.2991 8.36392 21.8117L8.08705 21.4578L10.1762 18.0205C10.2632 17.8822 10.3144 17.7242 10.3254 17.5609C10.3364 17.3977 10.3068 17.2343 10.2391 17.0854C10.1687 16.912 10.0511 16.7619 9.89975 16.6524C9.74842 16.5429 9.56946 16.4784 9.38333 16.4662C9.19711 16.4504 9.01019 16.4869 8.84349 16.5717C8.67679 16.6565 8.53688 16.7863 8.43944 16.9464L5.35606 22.0012L4.28632 21.3315L7.36969 16.2766C7.51614 16.0017 7.71702 15.7597 7.95998 15.5656C8.20294 15.3715 8.48286 15.2293 8.78255 15.1477C9.08224 15.0662 9.39536 15.047 9.70269 15.0914C10.01 15.1358 10.3051 15.2428 10.5697 15.4059C10.8344 15.569 11.063 15.7846 11.2416 16.0397C11.4202 16.2947 11.545 16.5837 11.6084 16.8889C11.6717 17.1941 11.6722 17.5091 11.6099 17.8146C11.5476 18.12 11.4237 18.4094 11.2459 18.665L9.57211 21.3947C9.98114 22.0355 10.2352 22.7635 10.3138 23.5206C10.3925 24.2776 10.2936 25.0427 10.0252 25.7545Z" fill="black"/>
<path d="M13.851 25.5144L13.4357 25.0974L12.7939 24.4529L12.7184 24.9331C12.66 25.3125 12.5163 25.6735 12.2983 25.9888C12.0802 26.3041 11.7935 26.5654 11.4599 26.7528L11.0571 26.8666V29.0275H12.3156V27.7006C13.0725 27.1865 13.6181 26.4143 13.851 25.527V25.5144Z" fill="black"/>
</g>
<defs>
<clipPath id="clip0_1_509">
<rect width="24" height="32.25" fill="white" transform="translate(0.510742)"/>
</clipPath>
</defs>
</svg>
