<svg width="66" height="70" viewBox="0 0 66 70" fill="none" xmlns="http://www.w3.org/2000/svg">
<g clip-path="url(#clip0_1_449)">
<path d="M48.4688 48.0895V45.1045C50.4623 45.149 52.4022 44.3954 53.9239 42.9851C53.054 42.4658 52.2924 41.7542 51.6873 40.8955C50.9943 39.9693 50.5717 38.8365 50.4744 37.6441C50.3771 36.4517 50.6096 35.2549 51.1417 34.2089C51.6245 33.4705 52.3181 32.9288 53.1132 32.6694C53.9083 32.41 54.7597 32.4475 55.5331 32.7761C56.6973 33.2555 57.6601 34.1862 58.2383 35.3914C58.8166 36.5967 58.9702 37.9924 58.6698 39.3134C58.5668 39.9834 58.4116 40.6425 58.2061 41.2836C60.3244 41.3522 62.4352 40.9773 64.425 40.1791L65.2978 43.1642C62.5779 44.3355 59.6249 44.706 56.7333 44.2388C55.7078 45.518 54.4326 46.5283 53.002 47.1949C51.5713 47.8614 50.022 48.1672 48.4688 48.0895ZM54.1966 35.5224C54.0504 35.5165 53.9049 35.5486 53.7722 35.6161C53.6395 35.6835 53.5232 35.7844 53.4329 35.9104C53.2273 36.4315 53.1618 37.006 53.2439 37.5664C53.326 38.1268 53.5524 38.65 53.8966 39.0746C54.3436 39.7125 54.9234 40.2242 55.5877 40.5672C55.7957 40.0318 55.9422 39.4703 56.0241 38.8955C56.1877 37.6418 56.0241 35.9104 54.824 35.6418C54.6484 35.5731 54.4646 35.5328 54.2785 35.5224H54.1966Z" fill="black"/>
<path d="M38.3768 28.8655C41.4303 30.1097 44.0873 32.2987 46.0244 35.166C47.9615 38.0333 49.0951 41.4551 49.287 45.0148C49.1959 47.8322 48.4743 50.5821 47.1855 53.023C45.8968 55.464 44.0802 57.5215 41.8953 59.0148V68.5073H34.7218V62.5372C30.3521 63.8109 25.7538 63.8109 21.3841 62.5372V68.5073H14.2106V59.0148C11.3727 56.9154 9.17736 53.9304 7.9099 50.4476H3.54581C3.30122 50.4517 3.05839 50.4019 2.8317 50.3013C2.60501 50.2007 2.39908 50.0514 2.22611 49.8621C2.05314 49.6728 1.91666 49.4474 1.82476 49.1993C1.73285 48.9512 1.68739 48.6855 1.69106 48.4178V42.9849C1.68739 42.7173 1.73285 42.4515 1.82476 42.2034C1.91666 41.9553 2.05314 41.73 2.22611 41.5407C2.39908 41.3514 2.60501 41.202 2.8317 41.1014C3.05839 41.0008 3.30122 40.9511 3.54581 40.9551H7.3644C8.24365 37.7728 9.92666 34.9271 12.2195 32.7461V24.4476L18.8201 28.4476C19.5293 28.1491 20.2385 27.8805 20.9749 27.6417L23.0751 27.8208L25.0117 31.1342L33.4126 31.7611L36.6311 28.776L38.3768 28.8655Z" fill="#6BD975"/>
<path d="M37.3403 34.9851C32.4443 32.6499 26.986 32.1259 21.7932 33.4926L21.1386 30.5075C26.9229 28.9664 33.01 29.5539 38.4586 32.1791L37.3403 34.9851Z" fill="black"/>
<path d="M34.2035 33.4627L32.5397 31.1045C33.1122 30.6303 33.5755 30.0163 33.8928 29.3115C34.21 28.6067 34.3725 27.8305 34.3672 27.0448C34.2771 25.7545 33.7452 24.5491 32.8779 23.6697C32.0105 22.7902 30.8718 22.3016 29.6894 22.3016C28.5071 22.3016 27.3683 22.7902 26.501 23.6697C25.6337 24.5491 25.1017 25.7545 25.0117 27.0448C25.0059 27.7206 25.1236 28.3909 25.3578 29.0163C25.592 29.6416 25.938 30.2095 26.3754 30.6865L24.4389 32.7761C23.3922 31.6387 22.6791 30.1856 22.3906 28.6025C22.1022 27.0194 22.2514 25.3781 22.8194 23.8883C23.3873 22.3985 24.3481 21.1278 25.5791 20.2385C26.8101 19.3491 28.2554 18.8816 29.7303 18.8955C31.2772 18.8891 32.7869 19.4139 34.0468 20.3961C35.3067 21.3782 36.2534 22.7682 36.7533 24.3702C37.2533 25.9722 37.2815 27.7056 36.8338 29.326C36.3862 30.9465 35.4853 32.3724 34.2581 33.403L34.2035 33.4627Z" fill="black"/>
<path d="M31.0124 0H28.2848V13.1343H31.0124V0Z" fill="black"/>
<path d="M29.6758 16.1194L24.057 9.97011L25.9936 7.85071L29.6758 11.8806L33.3853 7.85071L35.3218 9.97011L29.6758 16.1194Z" fill="black"/>
<path d="M16.0926 44.3581C15.3527 44.3571 14.6235 44.1645 13.9646 43.7962C13.3057 43.4278 12.7357 42.8941 12.3013 42.2387L14.5106 40.4775C14.6596 40.7069 14.8488 40.9014 15.0673 41.0499C15.2857 41.1983 15.529 41.2976 15.7829 41.3421C16.0368 41.3866 16.2962 41.3752 16.5461 41.3088C16.7959 41.2424 17.0312 41.1221 17.2381 40.9551C17.6554 40.6207 17.9352 40.1196 18.0169 39.5607C18.0987 39.0019 17.9756 38.4303 17.6746 37.97L19.8839 36.2089C20.3915 36.9746 20.6959 37.8789 20.7635 38.822C20.8312 39.7651 20.6594 40.7104 20.2672 41.5534C19.875 42.3964 19.2776 43.1044 18.5409 43.5994C17.8043 44.0943 16.957 44.3569 16.0926 44.3581Z" fill="black"/>
<path d="M56.0241 67.0148H0V69.9999H56.0241V67.0148Z" fill="black"/>
<path d="M28.012 59.015C25.3949 59.0677 22.8014 58.4652 20.4294 57.2538L21.6841 54.5971C23.688 55.5166 25.8391 55.9902 28.012 55.9902C30.1849 55.9902 32.3361 55.5166 34.34 54.5971L35.5674 57.2538C33.2052 58.4658 30.6204 59.0684 28.012 59.015Z" fill="black"/>
</g>
<defs>
<clipPath id="clip0_1_449">
<rect width="65.3796" height="70" fill="white"/>
</clipPath>
</defs>
</svg>
