<svg width="44" height="44" viewBox="0 0 44 44" fill="none" xmlns="http://www.w3.org/2000/svg">
<g clip-path="url(#clip0_1_360)">
<path d="M26.2214 13.5474H4.23114C3.11055 13.5525 2.0373 13.9999 1.24491 14.7923C0.452519 15.5847 0.0051053 16.6579 0 17.7785V33.1115C0.0051053 34.2321 0.452519 35.3054 1.24491 36.0978C2.0373 36.8902 3.11055 37.3376 4.23114 37.3427H6.42435L12.0918 43.0101C12.251 43.1705 12.4674 43.2612 12.6934 43.2624C12.802 43.2873 12.9148 43.2873 13.0234 43.2624C13.1763 43.1995 13.3065 43.0915 13.3966 42.9528C13.4868 42.8142 13.5326 42.6514 13.528 42.4861V37.4203H26.2214C26.7837 37.4204 27.3403 37.3085 27.8588 37.091C28.3772 36.8735 28.8472 36.5549 29.2411 36.1537C29.635 35.7526 29.945 35.2769 30.1531 34.7546C30.3611 34.2323 30.4629 33.6737 30.4526 33.1115V17.7785C30.4526 16.6563 30.0068 15.5801 29.2133 14.7866C28.4198 13.9932 27.3436 13.5474 26.2214 13.5474Z" fill="#6BD975"/>
<rect x="35" y="19" width="5" height="12" fill="#8797DC"/>
<rect x="9" y="19" width="5" height="12" fill="#8797DC"/>
<path d="M27.9294 42.719C28.6262 42.719 29.191 42.1541 29.191 41.4574C29.191 40.7606 28.6262 40.1958 27.9294 40.1958C27.2327 40.1958 26.6678 40.7606 26.6678 41.4574C26.6678 42.1541 27.2327 42.719 27.9294 42.719Z" fill="#8797DC"/>
<path d="M40.6228 20.3988V16.09C40.6177 11.8242 38.9209 7.73466 35.9045 4.71832C32.8882 1.70198 28.7986 0.00513637 24.5328 0C20.2689 0.00514351 16.1813 1.7026 13.168 4.7195C10.1548 7.73641 8.46226 11.826 8.46227 16.09V20.3988C7.50324 20.5917 6.64071 21.111 6.02144 21.8683C5.40217 22.6256 5.06444 23.574 5.06571 24.5523V26.2408C5.07109 27.2413 5.43084 28.2076 6.08109 28.968C6.73133 29.7284 7.63 30.2337 8.61754 30.3943C8.7786 30.9065 9.09883 31.3539 9.53166 31.6716C9.96449 31.9892 10.4874 32.1605 11.0242 32.1606H12.7128C13.3872 32.1606 14.0339 31.8927 14.5107 31.4159C14.9875 30.939 15.2554 30.2923 15.2554 29.618V21.1557C15.2554 20.4814 14.9875 19.8347 14.5107 19.3578C14.0339 18.881 13.3872 18.6131 12.7128 18.6131H11.0242C10.7336 18.6236 10.446 18.6759 10.1702 18.7684V16.09C10.1754 12.2754 11.6916 8.61828 14.3871 5.91916C17.0826 3.22004 20.7377 1.69883 24.5523 1.68857C28.3684 1.69371 32.0265 3.21327 34.723 5.9135C37.4196 8.61374 38.9343 12.2739 38.9343 16.09V18.7684C38.6652 18.6759 38.384 18.6236 38.0997 18.6131H36.4111C36.0756 18.6106 35.7429 18.6744 35.4321 18.8011C35.1214 18.9277 34.8388 19.1146 34.6007 19.3509C34.3625 19.5873 34.1735 19.8685 34.0445 20.1782C33.9155 20.488 33.8491 20.8202 33.8491 21.1557V29.618C33.8491 30.2923 34.117 30.939 34.5938 31.4159C35.0706 31.8927 35.7174 32.1606 36.3917 32.1606H38.0803C38.2803 32.1807 38.4819 32.1807 38.6819 32.1606C38.3942 34.2947 37.421 36.2776 35.9088 37.8108C34.3966 39.344 32.4273 40.3445 30.2973 40.6617C30.1373 40.1782 29.8348 39.7545 29.4295 39.4462C29.0242 39.1379 28.5351 38.9594 28.0264 38.9343C27.6918 38.9317 27.36 38.9957 27.0504 39.1225C26.7408 39.2494 26.4594 39.4366 26.2228 39.6732C25.9862 39.9098 25.799 40.1911 25.6722 40.5008C25.5453 40.8104 25.4813 41.1422 25.4839 41.4768C25.4839 41.8098 25.5498 42.1395 25.6778 42.4469C25.8058 42.7543 25.9934 43.0333 26.2297 43.2679C26.4661 43.5024 26.7465 43.6879 27.0549 43.8135C27.3633 43.9392 27.6935 44.0026 28.0264 44C28.5559 44.0015 29.0722 43.8351 29.5011 43.5247C29.9301 43.2143 30.2496 42.776 30.4137 42.2726C35.9259 41.865 40.3511 36.7605 40.6811 30.3943C41.642 30.2019 42.5069 29.6834 43.1294 28.9265C43.7519 28.1696 44.0937 27.2208 44.097 26.2408V24.5523C44.0948 23.563 43.7461 22.6058 43.1114 21.847C42.4767 21.0882 41.5961 20.5757 40.6228 20.3988ZM8.46227 28.6281C7.96776 28.4548 7.53949 28.1318 7.2369 27.704C6.93431 27.2762 6.77241 26.7648 6.77369 26.2408V24.5523C6.77241 24.0283 6.93431 23.5169 7.2369 23.0891C7.53949 22.6613 7.96776 22.3383 8.46227 22.165V28.6281ZM11.0048 20.3211H12.6934C12.9148 20.3211 13.127 20.409 13.2836 20.5656C13.4401 20.7221 13.528 20.9344 13.528 21.1557V29.618C13.5281 29.8412 13.4407 30.0555 13.2848 30.2151C13.1288 30.3747 12.9165 30.4669 12.6934 30.472H11.0048C10.7783 30.472 10.5611 30.382 10.401 30.2218C10.2408 30.0617 10.1508 29.8445 10.1508 29.618V21.1557C10.1559 20.9326 10.2481 20.7203 10.4077 20.5643C10.5673 20.4084 10.7817 20.3211 11.0048 20.3211ZM28.0264 42.3114C27.8033 42.3115 27.589 42.2242 27.4293 42.0682C27.2697 41.9122 27.1775 41.6999 27.1725 41.4768C27.1725 41.2503 27.2624 41.0331 27.4226 40.873C27.5827 40.7128 27.8 40.6228 28.0264 40.6228C28.2496 40.6279 28.4618 40.7201 28.6178 40.8797C28.7738 41.0393 28.8611 41.2537 28.861 41.4768C28.861 41.5864 28.8394 41.6949 28.7975 41.7962C28.7556 41.8975 28.6941 41.9895 28.6166 42.067C28.5391 42.1445 28.4471 42.206 28.3458 42.2479C28.2446 42.2898 28.136 42.3114 28.0264 42.3114ZM39.0119 29.618C39.0119 29.8412 38.9246 30.0555 38.7687 30.2151C38.6127 30.3747 38.4004 30.4669 38.1773 30.472H36.4887C36.2622 30.472 36.045 30.382 35.8849 30.2218C35.7247 30.0617 35.6347 29.8445 35.6347 29.618V21.1557C35.6398 20.9326 35.732 20.7203 35.8916 20.5643C36.0512 20.4084 36.2656 20.3211 36.4887 20.3211H38.1773C38.3987 20.3211 38.6109 20.409 38.7674 20.5656C38.924 20.7221 39.0119 20.9344 39.0119 21.1557V29.618ZM42.4085 26.2408C42.4069 26.7642 42.2439 27.2743 41.9417 27.7015C41.6395 28.1288 41.2128 28.4524 40.7199 28.6281V22.165C41.2128 22.3407 41.6395 22.6643 41.9417 23.0916C42.2439 23.5188 42.4069 24.0289 42.4085 24.5523V26.2408Z" fill="#1A1A1A"/>
</g>
<defs>
<clipPath id="clip0_1_360">
<rect width="44" height="44" fill="white"/>
</clipPath>
</defs>
</svg>
