<svg width="40" height="44" viewBox="0 0 40 44" fill="none" xmlns="http://www.w3.org/2000/svg">
<g clip-path="url(#clip0_1_381)">
<path d="M25.6301 34.4919C30.5243 34.4919 34.4919 30.5243 34.4919 25.6301C34.4919 20.7359 30.5243 16.7683 25.6301 16.7683C20.7359 16.7683 16.7683 20.7359 16.7683 25.6301C16.7683 30.5243 20.7359 34.4919 25.6301 34.4919Z" fill="#6BD975"/>
<path d="M21.9715 0.894111L29.8983 10.6909H20.9755L21.2398 0.609558L21.9715 0.894111Z" fill="#8797DC"/>
<path d="M0.934959 0C0.683147 0.0291203 0.450189 0.147762 0.278562 0.334313C0.106935 0.520864 0.00807143 0.762898 0 1.01626V7.11382C0.00499289 7.3837 0.113052 7.64143 0.302018 7.83418C0.490984 8.02692 0.746534 8.14006 1.01626 8.15039C1.28797 8.14032 1.54581 8.02788 1.73807 7.83562C1.93033 7.64336 2.04277 7.38553 2.05285 7.11382V1.99186H20V10.691C20.005 10.9609 20.1131 11.2187 20.302 11.4114C20.491 11.6042 20.7465 11.7173 21.0163 11.7276H29.7358V16.1789C27.7285 15.2899 25.4874 15.0748 23.3477 15.5657C21.208 16.0567 19.2848 17.2273 17.8659 18.9024H6.62602C6.35828 18.9278 6.10971 19.0524 5.92918 19.2517C5.74865 19.4511 5.64921 19.7107 5.65041 19.9797C5.67578 20.2474 5.80037 20.496 5.99971 20.6765C6.19905 20.857 6.45871 20.9565 6.72764 20.9553H16.5447C15.9723 22.0785 15.6139 23.2985 15.4878 24.5528H6.62602C6.39125 24.6 6.18006 24.727 6.02833 24.9123C5.8766 25.0976 5.7937 25.3296 5.7937 25.5691C5.7937 25.8086 5.8766 26.0406 6.02833 26.2259C6.18006 26.4112 6.39125 26.5382 6.62602 26.5854H15.3862C15.5148 27.8328 15.8731 29.0456 16.4431 30.1626H6.62602C6.35828 30.188 6.10971 30.3126 5.92918 30.5119C5.74865 30.7112 5.64921 30.9709 5.65041 31.2398C5.67578 31.5076 5.80037 31.7561 5.99971 31.9367C6.19905 32.1172 6.45871 32.2166 6.72764 32.2154H17.9065C18.8103 33.2741 19.9192 34.1386 21.1663 34.7569C22.4134 35.3753 23.7729 35.7345 25.1626 35.813H6.62602C6.39125 35.8602 6.18006 35.9872 6.02833 36.1725C5.8766 36.3577 5.7937 36.5898 5.7937 36.8293C5.7937 37.0687 5.8766 37.3008 6.02833 37.4861C6.18006 37.6713 6.39125 37.7983 6.62602 37.8455H25.122C25.3937 37.8354 25.6515 37.723 25.8438 37.5307C26.036 37.3385 26.1485 37.0806 26.1585 36.8089C26.1532 36.5376 26.0417 36.2791 25.8478 36.0891C25.654 35.899 25.3934 35.7926 25.122 35.7927H25.6301C27.0294 35.791 28.4133 35.5004 29.6951 34.939V40.9146H2.05285V11.2805C2.04761 11.1363 2.014 10.9946 1.95394 10.8634C1.89388 10.7323 1.80856 10.6142 1.70285 10.5161C1.59713 10.4179 1.47311 10.3415 1.33786 10.2914C1.20261 10.2412 1.05879 10.2181 0.914634 10.2236C0.661413 10.2622 0.430256 10.3899 0.262635 10.5836C0.0950132 10.7772 0.00189926 11.0243 0 11.2805V42.0325C0.00499289 42.3024 0.113052 42.5601 0.302018 42.7529C0.490984 42.9456 0.746534 43.0588 1.01626 43.0691H30.7724C31.0421 43.0588 31.2976 42.9456 31.4866 42.7529C31.6756 42.5601 31.7836 42.3024 31.7886 42.0325V33.9024L32.1341 33.6585L38.2317 39.7561C38.4285 39.9449 38.6907 40.0503 38.9634 40.0503C39.2361 40.0503 39.4983 39.9449 39.6951 39.7561C39.8794 39.557 39.9818 39.2957 39.9818 39.0244C39.9818 38.7531 39.8794 38.4918 39.6951 38.2927L33.5976 32.1951C34.4788 31.1308 35.1337 29.8979 35.5222 28.5719C35.9108 27.2458 36.0248 25.8545 35.8574 24.4829C35.69 23.1113 35.2447 21.7882 34.5486 20.5946C33.8525 19.4009 32.9203 18.3618 31.8089 17.5406V10.3252C31.8109 10.1889 31.7849 10.0536 31.7324 9.9277C31.68 9.80184 31.6023 9.68808 31.5041 9.59348L22.2764 0.365854C22.0781 0.180574 21.8161 0.0786726 21.5447 0.0812872L0.934959 0ZM22.0528 2.94715L28.8008 9.71544H22.0528V2.94715ZM25.6301 17.3984C27.2381 17.3984 28.8099 17.8752 30.1469 18.7685C31.4839 19.6619 32.526 20.9316 33.1413 22.4172C33.7566 23.9028 33.9176 25.5375 33.6039 27.1145C33.2902 28.6916 32.5159 30.1403 31.3789 31.2773C30.2419 32.4143 28.7933 33.1886 27.2162 33.5023C25.6391 33.816 24.0044 33.655 22.5188 33.0397C21.0333 32.4243 19.7635 31.3823 18.8702 30.0453C17.9768 28.7083 17.5 27.1364 17.5 25.5284C17.5054 23.3757 18.3643 21.313 19.8884 19.7927C21.4125 18.2724 23.4774 17.4187 25.6301 17.4187V17.3984ZM25.5285 19.9593C25.2769 19.9935 25.0461 20.117 24.8782 20.3074C24.7102 20.4977 24.6164 20.7421 24.6138 20.9959V22.0122C24.6185 22.2841 24.7259 22.5442 24.9144 22.7402C25.1029 22.9363 25.3586 23.0537 25.6301 23.0691C25.9052 23.0588 26.1659 22.9435 26.3587 22.7469C26.5515 22.5504 26.6617 22.2874 26.6667 22.0122V20.9959C26.6589 20.8544 26.6232 20.7158 26.5618 20.588C26.5003 20.4603 26.4143 20.3459 26.3085 20.2515C26.2028 20.1571 26.0794 20.0845 25.9456 20.0379C25.8117 19.9912 25.67 19.9714 25.5285 19.9797V19.9593ZM25.5285 24.5732C25.2769 24.6073 25.0461 24.7309 24.8782 24.9212C24.7102 25.1115 24.6164 25.3559 24.6138 25.6097V30.2236C24.6188 30.4934 24.7269 30.7512 24.9158 30.9439C25.1048 31.1367 25.3604 31.2498 25.6301 31.2602C25.9018 31.2501 26.1596 31.1376 26.3519 30.9454C26.5441 30.7531 26.6566 30.4953 26.6667 30.2236V25.6097C26.6589 25.4682 26.6232 25.3296 26.5618 25.2019C26.5003 25.0741 26.4143 24.9598 26.3085 24.8654C26.2028 24.7709 26.0794 24.6983 25.9456 24.6517C25.8117 24.605 25.67 24.5853 25.5285 24.5935V24.5732Z" fill="black"/>
</g>
<defs>
<clipPath id="clip0_1_381">
<rect width="40" height="43.0691" fill="white"/>
</clipPath>
</defs>
</svg>
