<svg width="25" height="23" viewBox="0 0 25 23" fill="none" xmlns="http://www.w3.org/2000/svg">
<g clip-path="url(#clip0_1_526)">
<path d="M13.4623 0.497681H5.4082V3.16675H13.4623V0.497681Z" fill="#CCCCCC"/>
<path d="M24.0598 22.7369H0.952686C0.835477 22.7369 0.723069 22.6902 0.640189 22.607C0.557309 22.5239 0.510742 22.4111 0.510742 22.2935C0.510719 22.1751 0.556995 22.0614 0.639625 21.9768C0.722255 21.8922 0.834655 21.8435 0.952686 21.8412H24.0598C24.1186 21.84 24.177 21.8505 24.2317 21.8723C24.2864 21.894 24.3361 21.9265 24.3781 21.9678C24.4201 22.0091 24.4535 22.0583 24.4763 22.1127C24.499 22.1671 24.5108 22.2255 24.5107 22.2845C24.5107 22.4045 24.4632 22.5195 24.3787 22.6044C24.2941 22.6892 24.1794 22.7369 24.0598 22.7369Z" fill="black"/>
<path d="M13.3991 3.56472H5.3991C5.28189 3.56472 5.16948 3.51801 5.0866 3.43487C5.00372 3.35173 4.95715 3.23897 4.95715 3.12139V0.40708C4.95715 0.2895 5.00372 0.176736 5.0866 0.0935944C5.16948 0.0104526 5.28189 -0.0362549 5.3991 -0.0362549H13.3991C13.5163 -0.0362549 13.6287 0.0104526 13.7116 0.0935944C13.7945 0.176736 13.841 0.2895 13.841 0.40708V3.12139C13.841 3.23897 13.7945 3.35173 13.7116 3.43487C13.6287 3.51801 13.5163 3.56472 13.3991 3.56472ZM5.84103 2.65995H12.9571V0.850415H5.84103V2.65995Z" fill="black"/>
<path d="M13.3991 22.7369H2.72942C2.61221 22.7369 2.4998 22.6902 2.41692 22.6071C2.33404 22.5239 2.28748 22.4112 2.28748 22.2936V3.12153C2.28748 3.00395 2.33404 2.89118 2.41692 2.80804C2.4998 2.7249 2.61221 2.67819 2.72942 2.67819H16.0597C16.1185 2.67699 16.177 2.68756 16.2316 2.7093C16.2863 2.73104 16.3361 2.76351 16.3781 2.8048C16.4201 2.84609 16.4535 2.89536 16.4762 2.94975C16.499 3.00414 16.5107 3.06254 16.5107 3.12153V6.24298C16.5107 6.30197 16.499 6.36037 16.4762 6.41476C16.4535 6.46914 16.4201 6.51842 16.3781 6.55971C16.3361 6.601 16.2863 6.63346 16.2316 6.6552C16.177 6.67694 16.1185 6.68752 16.0597 6.68632H13.841V22.2936C13.841 22.4112 13.7945 22.5239 13.7116 22.6071C13.6287 22.6902 13.5163 22.7369 13.3991 22.7369ZM3.18038 21.8321H12.9571V6.24298C12.9571 6.1254 13.0037 6.01263 13.0866 5.92949C13.1695 5.84635 13.2819 5.79964 13.3991 5.79964H15.6178V3.56486H3.18038V21.8321Z" fill="black"/>
<path d="M5.39919 7.12956C5.28198 7.12956 5.16957 7.08285 5.08669 6.99971C5.00381 6.91657 4.95725 6.8038 4.95725 6.68622V5.78145C4.95605 5.72248 4.96659 5.66385 4.98827 5.60901C5.00994 5.55418 5.0423 5.50423 5.08346 5.4621C5.12462 5.41997 5.17373 5.3865 5.22795 5.36366C5.28216 5.34082 5.34039 5.32906 5.39919 5.32907C5.45917 5.32787 5.51878 5.33868 5.57453 5.36087C5.63029 5.38307 5.68107 5.4162 5.72391 5.45833C5.76674 5.50045 5.80076 5.55074 5.82399 5.60622C5.84721 5.6617 5.85917 5.72128 5.85916 5.78145V6.68622C5.85921 6.746 5.84721 6.80517 5.82388 6.86017C5.80055 6.91517 5.76638 6.96487 5.72341 7.00628C5.68045 7.04769 5.62956 7.07997 5.57385 7.10115C5.51813 7.12234 5.45873 7.132 5.39919 7.12956Z" fill="black"/>
<path d="M8.06873 7.12947C8.0107 7.12947 7.95323 7.118 7.89961 7.09572C7.84599 7.07344 7.79727 7.04079 7.75623 6.99962C7.7152 6.95845 7.68265 6.90958 7.66044 6.85579C7.63823 6.802 7.6268 6.74435 7.6268 6.68613V5.78136C7.6256 5.72239 7.63614 5.66376 7.65781 5.60892C7.67948 5.55409 7.71184 5.50414 7.753 5.46201C7.79416 5.41988 7.84329 5.38641 7.8975 5.36357C7.95172 5.34073 8.00993 5.32897 8.06873 5.32898C8.18833 5.32898 8.30304 5.37664 8.38761 5.46148C8.47219 5.54632 8.51969 5.66138 8.51969 5.78136V6.68613C8.5197 6.74512 8.50799 6.80352 8.48522 6.8579C8.46244 6.91229 8.42908 6.96158 8.38708 7.00286C8.34508 7.04415 8.29528 7.07661 8.24062 7.09835C8.18596 7.12009 8.12752 7.13067 8.06873 7.12947Z" fill="black"/>
<path d="M10.7384 7.12947C10.6796 7.13067 10.6212 7.12009 10.5665 7.09835C10.5119 7.07661 10.4621 7.04415 10.4201 7.00286C10.3781 6.96158 10.3447 6.91229 10.3219 6.8579C10.2992 6.80352 10.2875 6.74512 10.2875 6.68613V5.78136C10.2875 5.66138 10.335 5.54632 10.4196 5.46148C10.5041 5.37664 10.6188 5.32898 10.7384 5.32898C10.858 5.32898 10.9727 5.37664 11.0573 5.46148C11.1419 5.54632 11.1894 5.66138 11.1894 5.78136V6.68613C11.1894 6.74512 11.1777 6.80352 11.1549 6.8579C11.1321 6.91229 11.0988 6.96158 11.0568 7.00286C11.0148 7.04415 10.965 7.07661 10.9103 7.09835C10.8557 7.12009 10.7972 7.13067 10.7384 7.12947Z" fill="black"/>
<path d="M5.39919 10.251C5.28198 10.251 5.16957 10.2043 5.08669 10.1212C5.00381 10.038 4.95725 9.92526 4.95725 9.80768V8.90291C4.95605 8.84394 4.96659 8.78531 4.98827 8.73047C5.00994 8.67564 5.0423 8.62569 5.08346 8.58356C5.12462 8.54143 5.17373 8.50796 5.22795 8.48512C5.28216 8.46228 5.34039 8.45052 5.39919 8.45053C5.45917 8.44933 5.51878 8.46014 5.57453 8.48233C5.63029 8.50453 5.68107 8.53766 5.72391 8.57979C5.76674 8.62191 5.80076 8.6722 5.82399 8.72768C5.84721 8.78316 5.85917 8.84274 5.85916 8.90291V9.80768C5.85921 9.86746 5.84721 9.92663 5.82388 9.98163C5.80055 10.0366 5.76638 10.0863 5.72341 10.1277C5.68045 10.1692 5.62956 10.2014 5.57385 10.2226C5.51813 10.2438 5.45873 10.2535 5.39919 10.251Z" fill="black"/>
<path d="M8.06873 10.2511C8.0107 10.2511 7.95323 10.2396 7.89961 10.2173C7.84599 10.195 7.79727 10.1624 7.75623 10.1212C7.7152 10.08 7.68265 10.0312 7.66044 9.97737C7.63823 9.92359 7.6268 9.86594 7.6268 9.80772V8.90295C7.6256 8.84397 7.63614 8.78534 7.65781 8.73051C7.67948 8.67567 7.71184 8.62572 7.753 8.58359C7.79416 8.54146 7.84329 8.508 7.8975 8.48515C7.95172 8.46231 8.00993 8.45055 8.06873 8.45056C8.18833 8.45056 8.30304 8.49822 8.38761 8.58306C8.47219 8.6679 8.51969 8.78297 8.51969 8.90295V9.80772C8.5197 9.8667 8.50799 9.92511 8.48522 9.97949C8.46244 10.0339 8.42908 10.0832 8.38708 10.1244C8.34508 10.1657 8.29528 10.1982 8.24062 10.2199C8.18596 10.2417 8.12752 10.2523 8.06873 10.2511Z" fill="black"/>
<path d="M10.7384 10.2511C10.6796 10.2523 10.6212 10.2417 10.5665 10.2199C10.5119 10.1982 10.4621 10.1657 10.4201 10.1244C10.3781 10.0832 10.3447 10.0339 10.3219 9.97949C10.2992 9.92511 10.2875 9.8667 10.2875 9.80772V8.90295C10.2875 8.78297 10.335 8.6679 10.4196 8.58306C10.5041 8.49822 10.6188 8.45056 10.7384 8.45056C10.858 8.45056 10.9727 8.49822 11.0573 8.58306C11.1419 8.6679 11.1894 8.78297 11.1894 8.90295V9.80772C11.1894 9.8667 11.1777 9.92511 11.1549 9.97949C11.1321 10.0339 11.0988 10.0832 11.0568 10.1244C11.0148 10.1657 10.965 10.1982 10.9103 10.2199C10.8557 10.2417 10.7972 10.2523 10.7384 10.2511Z" fill="black"/>
<path d="M5.3991 13.3725C5.28189 13.3725 5.16948 13.3258 5.0866 13.2426C5.00372 13.1595 4.95715 13.0467 4.95715 12.9291V12.0244C4.95715 11.9068 5.00372 11.794 5.0866 11.7109C5.16948 11.6277 5.28189 11.581 5.3991 11.581C5.45832 11.5798 5.51719 11.5903 5.57236 11.612C5.62753 11.6336 5.67792 11.6659 5.72064 11.7071C5.76335 11.7483 5.79757 11.7975 5.82132 11.8519C5.84507 11.9064 5.8579 11.9649 5.85907 12.0244V12.9291C5.85912 12.9889 5.84711 13.0481 5.82378 13.1031C5.80046 13.1581 5.76629 13.2078 5.72332 13.2492C5.68035 13.2906 5.62947 13.3229 5.57375 13.3441C5.51803 13.3652 5.45863 13.3749 5.3991 13.3725Z" fill="black"/>
<path d="M8.06888 13.3725C8.01085 13.3725 7.95338 13.361 7.89976 13.3388C7.84614 13.3165 7.79742 13.2838 7.75639 13.2427C7.71535 13.2015 7.6828 13.1526 7.66059 13.0988C7.63838 13.045 7.62695 12.9874 7.62695 12.9292V12.0244C7.62695 11.9662 7.63838 11.9085 7.66059 11.8547C7.6828 11.801 7.71535 11.7521 7.75639 11.7109C7.79742 11.6697 7.84614 11.6371 7.89976 11.6148C7.95338 11.5925 8.01085 11.5811 8.06888 11.5811C8.18694 11.581 8.3003 11.6275 8.38462 11.7103C8.46893 11.7932 8.51748 11.906 8.51984 12.0244V12.9292C8.51985 12.9881 8.50814 13.0465 8.48537 13.1009C8.4626 13.1553 8.42923 13.2046 8.38723 13.2459C8.34523 13.2872 8.29544 13.3196 8.24077 13.3414C8.18611 13.3631 8.12767 13.3737 8.06888 13.3725Z" fill="black"/>
<path d="M10.7384 13.3725C10.6796 13.3737 10.6212 13.3631 10.5665 13.3414C10.5119 13.3196 10.4621 13.2871 10.4201 13.2459C10.3781 13.2046 10.3447 13.1553 10.3219 13.1009C10.2992 13.0465 10.2875 12.9881 10.2875 12.9291V12.0244C10.2875 11.9654 10.2992 11.907 10.3219 11.8526C10.3447 11.7982 10.3781 11.7489 10.4201 11.7076C10.4621 11.6663 10.5119 11.6339 10.5665 11.6121C10.6212 11.5904 10.6796 11.5798 10.7384 11.581C10.8565 11.581 10.9698 11.6274 11.0542 11.7103C11.1385 11.7932 11.187 11.906 11.1894 12.0244V12.9291C11.1894 12.9881 11.1777 13.0465 11.1549 13.1009C11.1321 13.1553 11.0988 13.2046 11.0568 13.2459C11.0148 13.2871 10.965 13.3196 10.9103 13.3414C10.8557 13.3631 10.7972 13.3737 10.7384 13.3725Z" fill="black"/>
<path d="M5.3991 16.4668C5.28189 16.4668 5.16948 16.4201 5.0866 16.337C5.00372 16.2538 4.95715 16.1411 4.95715 16.0235V15.1187C4.95715 15.0011 5.00372 14.8884 5.0866 14.8052C5.16948 14.7221 5.28189 14.6754 5.3991 14.6754C5.45832 14.6742 5.51719 14.6847 5.57236 14.7063C5.62753 14.728 5.67792 14.7603 5.72064 14.8015C5.76335 14.8426 5.79757 14.8918 5.82132 14.9463C5.84507 15.0007 5.8579 15.0593 5.85907 15.1187V16.0235C5.85912 16.0833 5.84711 16.1424 5.82378 16.1974C5.80046 16.2524 5.76629 16.3021 5.72332 16.3436C5.68035 16.385 5.62947 16.4172 5.57375 16.4384C5.51803 16.4596 5.45863 16.4693 5.3991 16.4668Z" fill="black"/>
<path d="M8.06888 16.4669C8.01085 16.4669 7.95338 16.4554 7.89976 16.4331C7.84614 16.4108 7.79742 16.3782 7.75639 16.337C7.71535 16.2958 7.6828 16.247 7.66059 16.1932C7.63838 16.1394 7.62695 16.0817 7.62695 16.0235V15.1188C7.62695 15.0605 7.63838 15.0029 7.66059 14.9491C7.6828 14.8953 7.71535 14.8464 7.75639 14.8053C7.79742 14.7641 7.84614 14.7314 7.89976 14.7092C7.95338 14.6869 8.01085 14.6754 8.06888 14.6754C8.18694 14.6754 8.3003 14.7218 8.38462 14.8047C8.46893 14.8876 8.51748 15.0004 8.51984 15.1188V16.0235C8.51985 16.0825 8.50814 16.1409 8.48537 16.1953C8.4626 16.2497 8.42923 16.299 8.38723 16.3403C8.34523 16.3815 8.29544 16.414 8.24077 16.4357C8.18611 16.4575 8.12767 16.4681 8.06888 16.4669Z" fill="black"/>
<path d="M10.7384 16.4668C10.6796 16.468 10.6212 16.4575 10.5665 16.4357C10.5119 16.414 10.4621 16.3815 10.4201 16.3402C10.3781 16.2989 10.3447 16.2497 10.3219 16.1953C10.2992 16.1409 10.2875 16.0825 10.2875 16.0235V15.1187C10.2875 15.0597 10.2992 15.0013 10.3219 14.9469C10.3447 14.8926 10.3781 14.8433 10.4201 14.802C10.4621 14.7607 10.5119 14.7282 10.5665 14.7065C10.6212 14.6848 10.6796 14.6742 10.7384 14.6754C10.8565 14.6754 10.9698 14.7218 11.0542 14.8047C11.1385 14.8876 11.187 15.0003 11.1894 15.1187V16.0235C11.1894 16.0825 11.1777 16.1409 11.1549 16.1953C11.1321 16.2497 11.0988 16.2989 11.0568 16.3402C11.0148 16.3815 10.965 16.414 10.9103 16.4357C10.8557 16.4575 10.7972 16.468 10.7384 16.4668Z" fill="black"/>
<path d="M5.3991 19.6154C5.28189 19.6154 5.16948 19.5687 5.0866 19.4855C5.00372 19.4024 4.95715 19.2896 4.95715 19.172V18.2673C4.95715 18.1497 5.00372 18.0369 5.0866 17.9538C5.16948 17.8707 5.28189 17.8239 5.3991 17.8239C5.45832 17.8227 5.51719 17.8333 5.57236 17.8549C5.62753 17.8765 5.67792 17.9088 5.72064 17.95C5.76335 17.9912 5.79757 18.0404 5.82132 18.0948C5.84507 18.1493 5.8579 18.2079 5.85907 18.2673V19.172C5.85912 19.2318 5.84711 19.291 5.82378 19.346C5.80046 19.401 5.76629 19.4507 5.72332 19.4921C5.68035 19.5335 5.62947 19.5658 5.57375 19.587C5.51803 19.6082 5.45863 19.6178 5.3991 19.6154Z" fill="black"/>
<path d="M8.06888 19.6154C8.01085 19.6154 7.95338 19.6039 7.89976 19.5817C7.84614 19.5594 7.79742 19.5267 7.75639 19.4856C7.71535 19.4444 7.6828 19.3955 7.66059 19.3417C7.63838 19.2879 7.62695 19.2303 7.62695 19.1721V18.2673C7.62695 18.2091 7.63838 18.1514 7.66059 18.0977C7.6828 18.0439 7.71535 17.995 7.75639 17.9538C7.79742 17.9127 7.84614 17.88 7.89976 17.8577C7.95338 17.8354 8.01085 17.824 8.06888 17.824C8.18694 17.824 8.3003 17.8704 8.38462 17.9533C8.46893 18.0361 8.51748 18.1489 8.51984 18.2673V19.1721C8.51985 19.2311 8.50814 19.2895 8.48537 19.3439C8.4626 19.3982 8.42923 19.4475 8.38723 19.4888C8.34523 19.5301 8.29544 19.5626 8.24077 19.5843C8.18611 19.606 8.12767 19.6166 8.06888 19.6154Z" fill="black"/>
<path d="M10.7384 19.6154C10.6796 19.6166 10.6212 19.606 10.5665 19.5843C10.5119 19.5625 10.4621 19.5301 10.4201 19.4888C10.3781 19.4475 10.3447 19.3982 10.3219 19.3438C10.2992 19.2894 10.2875 19.231 10.2875 19.172V18.2673C10.2875 18.2083 10.2992 18.1499 10.3219 18.0955C10.3447 18.0411 10.3781 17.9918 10.4201 17.9505C10.4621 17.9093 10.5119 17.8768 10.5665 17.8551C10.6212 17.8333 10.6796 17.8227 10.7384 17.8239C10.8565 17.8239 10.9698 17.8703 11.0542 17.9532C11.1385 18.0361 11.187 18.1489 11.1894 18.2673V19.172C11.1894 19.231 11.1777 19.2894 11.1549 19.3438C11.1321 19.3982 11.0988 19.4475 11.0568 19.4888C11.0148 19.5301 10.965 19.5625 10.9103 19.5843C10.8557 19.606 10.7972 19.6166 10.7384 19.6154Z" fill="black"/>
<path d="M22.734 5.79956H12.8219V21.8411H22.734V5.79956Z" fill="#6BD975"/>
<path d="M20.8671 9.36447H14.6438C14.5266 9.36447 14.4142 9.31776 14.3314 9.23462C14.2485 9.15148 14.2019 9.03871 14.2019 8.92113C14.2019 8.80271 14.2482 8.68899 14.3308 8.6044C14.4134 8.51982 14.5258 8.47112 14.6438 8.46875H20.8671C20.9843 8.46875 21.0967 8.51546 21.1796 8.5986C21.2624 8.68174 21.309 8.7945 21.309 8.91208C21.309 9.03051 21.2628 9.14422 21.1801 9.22881C21.0975 9.31339 20.9851 9.3621 20.8671 9.36447Z" fill="black"/>
<path d="M20.867 12.0425H14.6438C14.5266 12.0425 14.4142 11.9958 14.3313 11.9126C14.2484 11.8295 14.2019 11.7167 14.2019 11.5991C14.2007 11.5397 14.2112 11.4806 14.2327 11.4253C14.2543 11.37 14.2865 11.3194 14.3276 11.2766C14.3686 11.2337 14.4177 11.1994 14.4719 11.1756C14.5262 11.1517 14.5846 11.1389 14.6438 11.1377H20.867C20.9258 11.1377 20.9841 11.1494 21.0383 11.1723C21.0925 11.1951 21.1416 11.2286 21.1828 11.2707C21.2239 11.3129 21.2563 11.3628 21.278 11.4176C21.2996 11.4725 21.3102 11.5311 21.309 11.5901C21.309 11.7085 21.2627 11.8222 21.1801 11.9068C21.0975 11.9914 20.9851 12.0401 20.867 12.0425Z" fill="black"/>
<path d="M20.867 14.7207H14.6438C14.5242 14.7207 14.4095 14.673 14.3249 14.5882C14.2404 14.5033 14.1929 14.3883 14.1929 14.2683C14.1929 14.1483 14.2404 14.0333 14.3249 13.9484C14.4095 13.8636 14.5242 13.8159 14.6438 13.8159H20.867C20.9843 13.8159 21.0967 13.8626 21.1795 13.9458C21.2624 14.0289 21.309 14.1417 21.309 14.2593C21.3102 14.3187 21.2997 14.3777 21.2781 14.4331C21.2566 14.4884 21.2243 14.539 21.1833 14.5818C21.1423 14.6247 21.0932 14.659 21.0389 14.6828C20.9847 14.7066 20.9263 14.7195 20.867 14.7207Z" fill="black"/>
<path d="M20.8671 17.3716H14.6438C14.5266 17.3716 14.4142 17.3248 14.3314 17.2417C14.2485 17.1586 14.2019 17.0458 14.2019 16.9282C14.2019 16.8098 14.2482 16.6961 14.3308 16.6115C14.4134 16.5269 14.5258 16.4782 14.6438 16.4758H20.8671C20.9843 16.4758 21.0967 16.5225 21.1796 16.6057C21.2624 16.6888 21.309 16.8016 21.309 16.9192C21.309 17.0376 21.2628 17.1513 21.1801 17.2359C21.0975 17.3205 20.9851 17.3692 20.8671 17.3716Z" fill="black"/>
<path d="M20.867 20.0858H14.6438C14.5266 20.0858 14.4142 20.0391 14.3313 19.956C14.2484 19.8728 14.2019 19.76 14.2019 19.6425C14.2007 19.5831 14.2112 19.524 14.2327 19.4686C14.2543 19.4133 14.2865 19.3628 14.3276 19.3199C14.3686 19.2771 14.4177 19.2427 14.4719 19.2189C14.5262 19.1951 14.5846 19.1822 14.6438 19.181H20.867C20.9258 19.181 20.9841 19.1928 21.0383 19.2156C21.0925 19.2385 21.1416 19.2719 21.1828 19.3141C21.2239 19.3562 21.2563 19.4061 21.278 19.461C21.2996 19.5158 21.3102 19.5744 21.309 19.6334C21.309 19.7518 21.2627 19.8656 21.1801 19.9501C21.0975 20.0347 20.9851 20.0834 20.867 20.0858Z" fill="black"/>
</g>
<defs>
<clipPath id="clip0_1_526">
<rect width="24" height="22.7368" fill="white" transform="translate(0.510742)"/>
</clipPath>
</defs>
</svg>
