<svg width="18" height="18" viewBox="0 0 18 18" fill="none" xmlns="http://www.w3.org/2000/svg">
<g clip-path="url(#clip0_1_564)">
<path d="M12.989 11.51L15.8396 14.3695C15.9362 14.4666 16.0126 14.5818 16.0646 14.7085C16.1167 14.8352 16.1432 14.9708 16.1428 15.1077C16.1424 15.2447 16.115 15.3802 16.0622 15.5065C16.0094 15.6329 15.9323 15.7476 15.8352 15.8441C15.738 15.9406 15.6229 16.0171 15.4962 16.0691C15.3695 16.1211 15.2339 16.1477 15.0969 16.1473C14.96 16.1469 14.8245 16.1195 14.6982 16.0667C14.5718 16.0139 14.4571 15.9368 14.3606 15.8396L11.51 12.989C11.51 12.989 10.999 13.3386 10.6763 13.5179C10.3536 13.6972 9.9502 13.8765 9.88745 13.9034L13.0966 17.1125C13.3417 17.4205 13.648 17.6743 13.9963 17.8576C14.3445 18.041 14.7271 18.15 15.1197 18.1778C15.5123 18.2056 15.9064 18.1515 16.277 18.019C16.6476 17.8865 16.9866 17.6785 17.2726 17.4081C17.5586 17.1377 17.7853 16.8108 17.9383 16.4482C18.0913 16.0856 18.1674 15.6951 18.1616 15.3016C18.1558 14.9081 18.0683 14.52 17.9047 14.162C17.7411 13.8041 17.505 13.484 17.2112 13.2221L17.0767 13.0876L13.9034 9.88745" fill="#6BD975"/>
<path d="M12.2809 12.3078C12.5007 12.0866 12.7044 11.8499 12.8904 11.5996C13.3617 10.9876 13.731 10.3035 13.984 9.5737C13.984 9.48405 14.0468 9.39441 14.0737 9.30477C14.1239 9.1457 14.1658 8.98413 14.1992 8.8207C14.2183 8.75904 14.2333 8.69614 14.244 8.63246C14.2888 8.43525 14.3157 8.22907 14.3426 8.0229C14.3426 8.0229 14.3426 7.96911 14.3426 7.94222C14.3426 7.70019 14.3426 7.46712 14.3426 7.22509C14.3406 6.74352 14.2926 6.26325 14.1992 5.79083C14.1622 5.58444 14.1112 5.38079 14.0468 5.18126V5.10059C13.9915 4.90479 13.9226 4.71309 13.8406 4.52688C13.8442 4.4971 13.8442 4.46701 13.8406 4.43724C13.3148 3.19887 12.4512 2.13339 11.3486 1.36254L11.2231 1.26393L10.9183 1.08465L10.5956 0.887439L10.3894 0.788833L9.92329 0.582661L9.744 0.510947L9.24201 0.340626L8.99998 0.277877L8.56074 0.179271C8.45317 0.179271 8.33663 0.179273 8.22906 0.125488H7.86153C7.73603 0.125488 7.60157 0.125488 7.46711 0.125488H7.1444H6.77687H6.40934H6.20317C4.70393 0.332433 3.3086 1.0084 2.21691 2.05661C1.12522 3.10483 0.393142 4.47155 0.125476 5.96115C0.125476 5.96115 0.125476 6.01493 0.125476 6.04182C0.125476 6.23903 0.0627281 6.44521 0.0447998 6.65138C0.0447998 6.70517 0.0447998 6.75895 0.0447998 6.81274C0.0447998 6.86652 0.0447998 7.18027 0.0447998 7.35955C0.0447998 7.53883 0.0447998 7.45815 0.0447998 7.50297C0.10933 9.33636 0.86886 11.0765 2.1693 12.3705C2.32169 12.5229 2.49201 12.6753 2.66233 12.8187L2.75197 12.8815C2.91333 13.007 3.06572 13.1235 3.23603 13.24L3.31671 13.2848C3.49599 13.4014 3.66631 13.509 3.85456 13.6076H3.92627C4.11827 13.7109 4.31578 13.8037 4.51791 13.8854L4.6434 13.9303L5.16332 14.1095H5.31572L5.82667 14.235H6.07767C6.21969 14.2646 6.36338 14.2856 6.50795 14.2978C6.71689 14.3114 6.9265 14.3114 7.13544 14.2978H7.21611C7.44899 14.3112 7.68244 14.3112 7.91532 14.2978L8.24699 14.3695L8.60556 14.3157L8.99998 14.2171L9.27787 14.1454C9.41233 14.1454 9.54679 14.0558 9.67229 14.0109C10.362 13.7624 11.0091 13.4086 11.5906 12.9621C11.8342 12.7587 12.0647 12.5401 12.2809 12.3078ZM11.0259 11.0259C10.8442 11.2045 10.6494 11.3693 10.4432 11.5189L10.3446 11.5996C10.1291 11.7507 9.90462 11.8884 9.67229 12.0119C8.53228 12.595 7.22165 12.7523 5.97608 12.4554C4.7305 12.1585 3.63171 11.427 2.87728 10.3923C2.12286 9.35772 1.7623 8.08789 1.86045 6.81119C1.95859 5.53449 2.50901 4.33469 3.41271 3.42754C4.31641 2.52039 5.51411 1.96541 6.79042 1.8624C8.06674 1.75939 9.33794 2.11511 10.3754 2.86559C11.4129 3.61606 12.1486 4.71206 12.4502 5.9565C12.7519 7.20093 12.5996 8.51215 12.0209 9.65437C11.9028 9.8926 11.7648 10.1205 11.6085 10.3356L11.5368 10.4343C11.3849 10.6387 11.2202 10.8333 11.0438 11.0169L11.0259 11.0259Z" fill="black"/>
</g>
<defs>
<clipPath id="clip0_1_564">
<rect width="18" height="18" fill="white"/>
</clipPath>
</defs>
</svg>
