<svg width="92" height="31" viewBox="0 0 92 31" fill="none" xmlns="http://www.w3.org/2000/svg">
<g clip-path="url(#clip0_1_319)">
<path fill-rule="evenodd" clip-rule="evenodd" d="M14.3838 3.71153C18.2312 3.71153 18.6858 3.71153 20.1955 3.7927C21.1096 3.78471 22.0175 3.94427 22.8741 4.26348C23.5014 4.52103 24.068 4.90677 24.5377 5.39597C25.0073 5.88517 25.3696 6.46707 25.6014 7.10439C25.923 8.0007 26.0931 8.94436 26.1046 9.89659C26.1046 11.52 26.1858 11.942 26.1858 15.9518C26.1858 19.9615 26.1858 20.4323 26.1046 22.007C26.0931 22.9592 25.923 23.9029 25.6014 24.7992C25.3788 25.4464 25.0125 26.0347 24.5299 26.52C24.0832 27.0145 23.5274 27.398 22.9065 27.6401C22.0531 27.9759 21.1451 28.152 20.228 28.1596C18.7182 28.1596 18.2637 28.2407 14.4163 28.2407C10.5689 28.2407 10.1306 28.2407 8.6046 28.1596C7.69288 28.1504 6.79055 27.9743 5.94226 27.6401C5.32141 27.398 4.76557 27.0145 4.31889 26.52C3.83134 26.0356 3.45953 25.4474 3.23122 24.7992C2.91201 23.9396 2.72589 23.0364 2.67927 22.1206C2.67927 20.4972 2.67927 20.0752 2.67927 16.0654C2.67927 12.0557 2.67927 11.5849 2.67927 10.0102C2.69328 9.05963 2.85765 8.11723 3.16629 7.21802C3.39459 6.56982 3.7664 5.98158 4.25395 5.49724C4.7048 5.00751 5.25946 4.62479 5.87733 4.37711C6.72562 4.04287 7.62795 3.86681 8.53966 3.85763C10.0656 3.85763 10.5202 3.77646 14.3514 3.77646L14.3838 3.71153ZM14.3838 1.01672C10.4877 1.01672 9.98447 1.01672 8.4585 1.09789C7.26231 1.11642 6.07953 1.35298 4.96824 1.79594C3.99871 2.16796 3.12697 2.75652 2.41953 3.51672C1.69432 4.27792 1.14075 5.18577 0.796158 6.17906C0.342935 7.34151 0.0798274 8.56934 0.0169373 9.81542C0.0169373 11.4388 0.0169373 11.9258 0.0169373 16.0005C0.0169373 20.0752 0.0169373 20.5784 0.0169373 22.1206C0.0472014 23.3615 0.277431 24.5894 0.698755 25.757C1.04335 26.7503 1.59692 27.6581 2.32213 28.4193C3.04687 29.2274 3.95405 29.8507 4.96824 30.2375C6.07953 30.6805 7.26231 30.917 8.4585 30.9356C9.98447 31.0167 10.4877 31.033 14.3838 31.033C18.2799 31.033 18.7832 31.033 20.3254 30.9356C21.5212 30.9138 22.7034 30.6774 23.8156 30.2375C24.7831 29.8615 25.654 29.2735 26.3643 28.5167C27.0841 27.7514 27.6369 26.8447 27.9877 25.8544C28.4334 24.6592 28.6696 23.3961 28.6858 22.1206C28.6858 20.4972 28.7669 20.0102 28.7669 15.9356C28.7669 11.8609 28.7669 11.3576 28.6858 9.75049C28.6674 8.50981 28.4425 7.28086 28.0202 6.11413C27.6694 5.12378 27.1166 4.21716 26.3968 3.45179C25.6705 2.71449 24.7886 2.14876 23.8156 1.79594C22.7034 1.35608 21.5212 1.11963 20.3254 1.09789C18.7832 1.01672 18.2962 1.01672 14.3838 1.01672ZM14.3838 8.32192C12.8629 8.26205 11.3584 8.65458 10.0606 9.44987C8.76285 10.2452 7.73007 11.4075 7.09294 12.7898C6.45581 14.1721 6.24294 15.7123 6.48126 17.2156C6.71959 18.7189 7.3984 20.1178 8.43183 21.2352C9.46527 22.3527 10.8069 23.1386 12.287 23.4935C13.7672 23.8484 15.3193 23.7563 16.7471 23.229C18.1749 22.7017 19.4143 21.7627 20.3084 20.5309C21.2025 19.2992 21.7112 17.8299 21.7702 16.3089V16.0005C21.7939 15.0094 21.6213 14.0233 21.2623 13.0992C20.9033 12.1751 20.365 11.3311 19.6784 10.6158C18.9919 9.90061 18.1706 9.32828 17.2619 8.9318C16.3532 8.53532 15.3751 8.32253 14.3838 8.30568V8.32192ZM14.3838 21.0167C13.3989 21.0414 12.4287 20.7746 11.5949 20.2498C10.7612 19.725 10.101 18.9656 9.6974 18.0668C9.29375 17.1681 9.1646 16.1702 9.32616 15.1984C9.48771 14.2265 9.93278 13.3241 10.6055 12.6043C11.2782 11.8845 12.1485 11.3795 13.1072 11.1526C14.0659 10.9258 15.0703 10.9872 15.9942 11.3292C16.9181 11.6713 17.7204 12.2786 18.3004 13.075C18.8803 13.8714 19.2121 14.8214 19.254 15.8057C19.262 15.8758 19.262 15.9466 19.254 16.0167C19.2691 16.6658 19.1543 17.3113 18.9164 17.9154C18.6784 18.5194 18.3221 19.0698 17.8683 19.5341C17.4146 19.9985 16.8726 20.3674 16.2742 20.6192C15.6758 20.871 15.0331 21.0007 14.3838 21.0005V21.0167ZM23.7994 8.02971C23.7867 8.3702 23.6741 8.69943 23.4756 8.97641C23.2772 9.2534 23.0017 9.4659 22.6834 9.58747C22.365 9.70904 22.018 9.7343 21.6855 9.66013C21.3529 9.58595 21.0495 9.4156 20.813 9.17029C20.5766 8.92498 20.4175 8.61553 20.3555 8.28047C20.2936 7.94542 20.3316 7.59955 20.4647 7.28591C20.5979 6.97228 20.8204 6.70474 21.1044 6.51659C21.3885 6.32845 21.7217 6.228 22.0624 6.22776C22.526 6.23627 22.9678 6.42645 23.2927 6.75737C23.6175 7.0883 23.7995 7.53352 23.7994 7.99724V8.02971Z" fill="white"/>
</g>
<g clip-path="url(#clip1_1_319)">
<path fill-rule="evenodd" clip-rule="evenodd" d="M78.0163 9.93494H80.9383V6.91546C80.8021 5.31151 81.1229 3.70178 81.8637 2.2726C82.3525 1.5294 83.0285 0.928059 83.8236 0.529089C84.6187 0.130119 85.5048 -0.0524072 86.3929 -0.000124835C88.1539 -0.0721157 89.9157 0.119392 91.6201 0.568057L90.8896 5.16221C90.1218 4.95901 89.33 4.86072 88.5357 4.87001C88.0734 4.77829 87.5935 4.87138 87.199 5.12933C86.8045 5.38729 86.5267 5.78955 86.4253 6.24988C86.4175 6.33628 86.4175 6.42322 86.4253 6.50962V9.93494H91.0033L90.6786 14.4155H86.3929V29.9999H80.9221V14.4155H78.0163V9.93494Z" fill="white"/>
</g>
<defs>
<clipPath id="clip0_1_319">
<rect width="28.7662" height="30" fill="white" transform="translate(0 1)"/>
</clipPath>
<clipPath id="clip1_1_319">
<rect width="13.6201" height="30" fill="white" transform="translate(78)"/>
</clipPath>
</defs>
</svg>
