<svg width="70" height="77" viewBox="0 0 70 77" fill="none" xmlns="http://www.w3.org/2000/svg">
<g clip-path="url(#clip0_1_486)">
<path d="M4.375 76.3634C4.375 76.3634 5.01668 63.969 6.94168 62.383C6.94168 62.383 18.6084 64.7326 23.3917 59.8571L35.0584 71.6054L44.5084 59.8571C44.5084 59.8571 56.175 66.6711 62.7083 61.9131C64.6398 66.4842 65.6511 71.3958 65.6834 76.3634H4.375Z" fill="#6BD975"/>
<path d="M18.7252 25.3765H10.4418V39.1807H18.7252V25.3765Z" fill="#8797DC"/>
<path d="M59.5586 25.3765H51.2752V39.1807H59.5586V25.3765Z" fill="#8797DC"/>
<path d="M69.7665 53.1024C69.7665 52.7129 69.6128 52.3394 69.3393 52.064C69.0658 51.7886 68.6949 51.6338 68.3082 51.6338C65.9165 51.6338 63.0582 50.5765 63.0582 45.7597C63.0582 17.6814 58.3332 0.235229 34.7665 0.235229C11.1998 0.235229 6.47479 17.8576 6.47479 45.7597C6.47479 50.8115 3.61649 51.6338 1.22483 51.6338C0.838054 51.6338 0.467142 51.7886 0.193652 52.064C-0.0798387 52.3394 -0.233505 52.7129 -0.233505 53.1024C-0.151106 55.0509 0.429043 56.945 1.45091 58.6017C2.47278 60.2585 3.90181 61.6217 5.59983 62.5597C3.79319 66.4175 2.8569 70.6301 2.85815 74.8954C2.85815 75.2849 3.01182 75.6584 3.28531 75.9338C3.5588 76.2092 3.92971 76.3639 4.31649 76.3639C4.70326 76.3639 5.07417 76.2092 5.34766 75.9338C5.62115 75.6584 5.77482 75.2849 5.77482 74.8954C5.75886 71.057 6.59596 67.2636 8.22481 63.7933C9.87914 64.3507 11.6137 64.6286 13.3582 64.6157C17.2827 64.5902 21.0689 63.1526 24.0332 60.5625L33.7748 72.8982C33.9166 73.0698 34.0953 73.2066 34.2975 73.2982C34.4997 73.3898 34.7199 73.4338 34.9415 73.4268C35.1547 73.4338 35.3664 73.3894 35.5591 73.2975C35.7519 73.2055 35.9201 73.0687 36.0498 72.8982L45.8498 60.5625C48.7908 63.1531 52.5592 64.5918 56.4665 64.6157C58.2114 64.6341 59.9468 64.3561 61.5999 63.7933C63.1866 67.2736 63.9837 71.0661 63.9332 74.8954C63.9332 75.2849 64.0868 75.6584 64.3603 75.9338C64.6338 76.2092 65.0047 76.3639 65.3915 76.3639C65.7783 76.3639 66.1492 76.2092 66.4227 75.9338C66.6962 75.6584 66.8498 75.2849 66.8498 74.8954C66.8511 70.6301 65.9148 66.4175 64.1081 62.5597C65.7735 61.5996 67.1676 60.2268 68.1579 58.5715C69.1482 56.9163 69.7019 55.0337 69.7665 53.1024ZM34.7665 3.23102C48.5332 3.23102 55.7665 9.10516 58.6248 24.9653C57.6311 24.2147 56.4253 23.8031 55.1832 23.7905H50.8082C44.9748 23.7905 42.8165 18.2688 42.8165 13.5107C42.8165 13.1213 42.6628 12.7477 42.3894 12.4723C42.1159 12.1969 41.745 12.0422 41.3582 12.0422C40.9714 12.0422 40.6004 12.1969 40.3269 12.4723C40.0534 12.7477 39.8999 13.1213 39.8999 13.5107C39.8999 18.9737 29.9832 23.7905 18.7248 23.7905H14.3498C13.1076 23.8031 11.9019 24.2147 10.9082 24.9653C13.9998 9.10516 21.2332 3.23102 34.7665 3.23102ZM34.7665 53.1611C32.6595 52.9693 30.6107 52.3611 28.7372 51.3715C26.8638 50.3818 25.2023 49.03 23.8479 47.3934C22.4936 45.7568 21.4728 43.8674 20.844 41.8333C20.2151 39.7992 19.9906 37.6603 20.1832 35.5387V26.7275C23.9388 26.8475 27.681 26.219 31.1947 24.8783C34.7085 23.5376 37.9245 21.511 40.6581 18.9149C41.1849 20.9214 42.2927 22.7246 43.8406 24.095C45.3884 25.4654 47.3062 26.3409 49.3498 26.61V35.5387C49.3388 37.2196 49.1431 38.8941 48.7665 40.5317C47.8209 41.7942 46.5814 42.8029 45.1571 43.4688C43.7328 44.1347 42.1677 44.4373 40.5998 44.3499C40.3453 43.906 39.9799 43.5369 39.5399 43.2793C39.0999 43.0217 38.6005 42.8845 38.0915 42.8814C37.318 42.8814 36.5761 43.1908 36.0291 43.7416C35.4821 44.2924 35.1749 45.0395 35.1749 45.8184C35.1749 46.5974 35.4821 47.3445 36.0291 47.8953C36.5761 48.4461 37.318 48.7555 38.0915 48.7555C38.6005 48.7524 39.0999 48.6152 39.5399 48.3576C39.9799 48.1 40.3453 47.7309 40.5998 47.287C42.608 47.2863 44.5943 46.8663 46.4332 46.0534C45.2367 48.1055 43.5337 49.8112 41.4896 51.0051C39.4454 52.199 37.1294 52.8406 34.7665 52.8674V53.1611ZM52.2665 26.7275H55.1832C55.9567 26.7275 56.6985 27.037 57.2455 27.5878C57.7925 28.1386 58.0998 28.8856 58.0998 29.6646V35.5387C58.0998 36.3177 57.7925 37.0647 57.2455 37.6155C56.6985 38.1663 55.9567 38.4758 55.1832 38.4758H52.2665V26.7275ZM17.2665 38.4758H14.3498C13.5763 38.4758 12.8345 38.1663 12.2875 37.6155C11.7405 37.0647 11.4332 36.3177 11.4332 35.5387V29.6646C11.4332 28.8856 11.7405 28.1386 12.2875 27.5878C12.8345 27.037 13.5763 26.7275 14.3498 26.7275H17.2665V38.4758ZM13.1832 61.9723C10.8788 62.178 8.57596 61.561 6.67773 60.2294C4.77951 58.8978 3.40682 56.9364 2.79985 54.6884C4.82418 54.3548 6.64154 53.2447 7.87055 51.5909C9.09956 49.9371 9.64462 47.8682 9.39146 45.8184C9.39146 43.3513 9.39146 41.0604 9.39146 38.8282C9.92655 39.6254 10.6479 40.278 11.4922 40.7287C12.3364 41.1794 13.2776 41.4143 14.2331 41.4128H17.8499C18.8742 45.9727 21.4545 50.0263 25.1415 52.8674C24.5353 55.5169 23.0352 57.8725 20.8971 59.5328C18.759 61.1932 16.1152 62.0553 13.4165 61.9723H13.1832ZM34.7665 69.6087L25.8415 58.4478C26.8189 57.1959 27.5334 55.757 27.9415 54.2184C30.0439 55.362 32.3787 56.0051 34.7665 56.0982C37.1297 56.0822 39.4603 55.5406 41.5915 54.5121C41.9591 56.0545 42.6558 57.4977 43.6332 58.7415L34.7665 69.6087ZM44.2165 52.5737C47.8881 49.7689 50.468 45.7576 51.5081 41.2366H55.1249C56.0804 41.2381 57.0216 41.0031 57.8658 40.5525C58.71 40.1018 59.4314 39.4492 59.9665 38.652C59.9665 40.8842 59.9665 43.1751 59.9665 45.6422C59.7134 47.692 60.2584 49.7609 61.4874 51.4147C62.7164 53.0685 64.5338 54.1786 66.5581 54.5121C65.9765 56.7187 64.6659 58.6599 62.8421 60.016C61.0183 61.372 58.7901 62.062 56.5248 61.9723C53.7267 62.1272 50.9667 61.2628 48.7495 59.537C46.5323 57.8112 45.0061 55.3395 44.4498 52.5737H44.2165Z" fill="black"/>
<path d="M38.0917 48.52C39.7991 48.52 41.1833 47.1262 41.1833 45.4067C41.1833 43.6873 39.7991 42.2935 38.0917 42.2935C36.3842 42.2935 35 43.6873 35 45.4067C35 47.1262 36.3842 48.52 38.0917 48.52Z" fill="#6BD975"/>
</g>
<defs>
<clipPath id="clip0_1_486">
<rect width="70" height="76.3636" fill="white"/>
</clipPath>
</defs>
</svg>
