<svg width="200" height="36" viewBox="0 0 200 36" fill="none" xmlns="http://www.w3.org/2000/svg">
<g clip-path="url(#clip0_1_558)">
<path d="M12.1 0C10.6446 0.0457933 9.2435 0.559723 8.10686 1.46465C6.97023 2.36957 6.15942 3.61668 5.79613 5.01877L0.120644 30.1327C-0.0334057 30.7377 -0.0441063 31.37 0.0893846 31.9797C0.222875 32.5895 0.496912 33.1601 0.889912 33.6466C1.28291 34.1332 1.78414 34.5223 2.35413 34.7835C2.92411 35.0446 3.54728 35.1706 4.17456 35.1515H5.20831L8.3501 19.6115H15.2215V20.0146C15.353 21.0938 15.8432 22.0983 16.6144 22.8688C17.3855 23.6393 18.3935 24.1316 19.4781 24.2674C21.1574 24.4954 22.8653 24.1616 24.3331 23.3188C25.8008 22.4759 26.9451 21.1718 27.5859 19.6115H35.5924C35.5476 19.7822 35.4935 19.9505 35.4303 20.1154C33.2817 26.8272 26.1063 32.2088 18.8497 30.6568C16.8845 30.2681 15.0463 29.4027 13.4986 28.1373L12.0594 35.1717H31.9034C33.3587 35.1259 34.7598 34.6119 35.8965 33.707C37.0331 32.8021 37.8439 31.555 38.2072 30.1529L43.8827 5.03892C44.0367 4.43397 44.0474 3.80171 43.9139 3.19194C43.7805 2.58218 43.5064 2.01156 43.1134 1.52502C42.7204 1.03849 42.2192 0.649325 41.6492 0.388186C41.0792 0.127047 40.4561 0.00106274 39.8288 0.0201557H19.2551L18.2619 4.83736C20.7531 3.88139 23.4651 3.64385 26.086 4.15207C28.6347 4.69835 30.949 6.02062 32.7072 7.93508C34.4654 9.84955 35.5801 12.2611 35.8965 14.8346H27.9305C27.6602 13.8293 27.1126 12.9192 26.3498 12.2069C25.5869 11.4947 24.639 11.0085 23.6131 10.8034C22.1026 10.6208 20.5724 10.9109 19.2355 11.6334C17.8985 12.3559 16.8214 13.4749 16.1539 14.8346H9.0798C9.0798 14.8346 9.0798 14.8346 9.0798 14.6935L12.3027 0H12.1ZM51.7473 10.8438H50.9365C50.6106 10.7619 50.2692 10.7619 49.9433 10.8438C49.8574 10.913 49.7863 10.9986 49.7341 11.0955C49.6819 11.1924 49.6496 11.2987 49.6393 11.4081L46.3556 26.8272C46.3205 26.9247 46.3153 27.0303 46.3405 27.1308C46.3658 27.2312 46.4204 27.322 46.4975 27.3916C46.7171 27.5516 46.9763 27.6491 47.2474 27.6738C47.7744 27.6738 48.3217 27.6738 48.869 27.6738C49.4163 27.6738 49.3352 27.3714 49.4163 27.1094C50.4493 27.6555 51.6103 27.9172 52.7791 27.8676C53.9479 27.818 55.0823 27.4588 56.0647 26.8272C57.5151 25.9189 58.6752 24.6185 59.4092 23.0783C60.0133 21.8233 60.1636 20.3995 59.8349 19.0471C59.6006 18.1149 59.0879 17.2751 58.3642 16.6383C57.6406 16.0014 56.74 15.5975 55.7809 15.4796C54.3911 15.2988 52.9787 15.5376 51.727 16.1649C52.0716 14.6129 52.4162 13.0407 52.7405 11.4686C52.7654 11.4026 52.7754 11.332 52.77 11.2617C52.7645 11.1914 52.7437 11.1231 52.709 11.0617C52.6742 11.0003 52.6264 10.9471 52.5688 10.906C52.5112 10.8649 52.4453 10.8367 52.3756 10.8236C52.166 10.8176 51.9561 10.8244 51.7473 10.8438ZM177.196 10.9848C176.804 10.9543 176.411 10.9543 176.02 10.9848C175.9 11.0207 175.793 11.0918 175.713 11.1888C175.634 11.2858 175.585 11.4044 175.574 11.5291C174.48 16.6284 173.405 21.748 172.311 26.8474C172.311 27.0288 172.311 27.2706 172.311 27.4319C172.311 27.5931 172.777 27.5931 173.02 27.6133H174.946C175.101 27.6043 175.247 27.5404 175.359 27.4331C175.47 27.3259 175.54 27.1824 175.554 27.0288L178.838 11.65C178.867 11.5757 178.877 11.4957 178.869 11.4164C178.861 11.3372 178.834 11.261 178.791 11.1942C178.747 11.1273 178.688 11.0716 178.619 11.0317C178.55 10.9918 178.472 10.9689 178.392 10.9647L177.196 10.9848ZM140.711 15.3586C140.34 15.3286 139.967 15.3286 139.596 15.3586C138.208 15.5777 136.909 16.178 135.846 17.092C134.441 18.2401 133.493 19.8476 133.17 21.627C132.941 22.7681 133.075 23.952 133.555 25.0132C133.876 25.6482 134.339 26.2018 134.908 26.6315C135.477 27.0612 136.138 27.3557 136.839 27.4924C138.624 27.8388 140.475 27.4693 141.987 26.4644C143.122 25.7385 144.083 24.7756 144.805 23.6426C145.63 22.2749 145.905 20.6481 145.575 19.0874C145.433 18.2967 145.085 17.5567 144.566 16.9414C144.047 16.326 143.374 15.8567 142.616 15.5803C142.019 15.3967 141.395 15.3216 140.771 15.3586H140.711ZM127.272 15.3586C126.177 15.3922 125.104 15.6676 124.13 16.1649C124.13 15.923 124.13 15.6005 123.745 15.5602C123.035 15.5602 122.326 15.5602 121.617 15.5602C121.453 15.5698 121.299 15.6387 121.183 15.7538C121.067 15.869 120.998 16.0224 120.988 16.185C119.914 21.1433 118.961 26.1218 117.786 31.0801C117.719 31.3586 117.671 31.6415 117.644 31.9266C117.659 32.0334 117.712 32.1313 117.794 32.2018C117.876 32.2722 117.981 32.3106 118.09 32.3096H119.894C120.166 32.3546 120.445 32.3047 120.684 32.1685C120.824 32.0275 120.911 31.842 120.927 31.6444L121.961 26.8675C122.827 27.3901 123.827 27.6493 124.839 27.6133C126.475 27.5883 128.054 27.0128 129.319 25.9807C130.671 24.9614 131.675 23.5544 132.197 21.9495C132.552 20.6722 132.452 19.3121 131.913 18.0998C131.606 17.4851 131.17 16.9424 130.636 16.508C130.101 16.0736 129.479 15.7574 128.812 15.5803C128.33 15.4461 127.833 15.3717 127.333 15.3586H127.272ZM94.8404 15.3586H94.354C93.1564 15.4575 91.9972 15.8265 90.9646 16.4377C89.932 17.0489 89.0531 17.8862 88.3947 18.8859C87.8762 19.6117 87.5072 20.4324 87.3089 21.3007C87.1106 22.1689 87.087 23.0676 87.2393 23.945C87.3956 24.6956 87.7366 25.3959 88.2319 25.9834C88.7271 26.5708 89.3611 27.0269 90.0771 27.311C91.0888 27.7023 92.1849 27.8273 93.2594 27.6738C95.0782 27.3556 96.7276 26.4143 97.9214 25.0132C98.0836 24.8116 98.3268 24.5496 98.2052 24.2674C98.0597 24.0714 97.8636 23.9182 97.6376 23.824C97.1917 23.5822 96.7458 23.3 96.2796 23.0783C96.1664 23.025 96.0382 23.0119 95.9164 23.0412C95.7947 23.0706 95.6868 23.1406 95.6107 23.2395C95.1545 23.6891 94.6092 24.0392 94.0094 24.2674C93.5703 24.4339 93.0945 24.4805 92.6311 24.4026C92.1678 24.3246 91.7339 24.1248 91.3743 23.824C91.1072 23.5663 90.9055 23.2492 90.7857 22.8988C90.6659 22.5484 90.6314 22.1747 90.6852 21.8085C90.8183 20.9096 91.2769 20.0899 91.9749 19.5035C92.6728 18.9172 93.5621 18.6043 94.4756 18.6239C95.0899 18.6397 95.6758 18.8843 96.1174 19.3091C96.3404 19.551 96.685 19.8533 97.0296 19.6115C97.3741 19.3696 98.2457 18.8254 98.8538 18.4223C99.1173 18.2812 99.3605 17.9386 99.1781 17.6362C98.9132 17.1777 98.5623 16.774 98.1444 16.447C97.2211 15.7269 96.0743 15.3492 94.9012 15.3788L94.8404 15.3586ZM107.57 15.3586C107.124 15.3279 106.677 15.3279 106.232 15.3586C105.122 15.5819 104.07 16.0277 103.14 16.6688C102.209 17.3099 101.42 18.1329 100.82 19.0874C99.88 20.5675 99.5667 22.3571 99.9484 24.0659C100.112 24.823 100.465 25.5266 100.976 26.1116C101.486 26.6965 102.137 27.1437 102.867 27.4117C103.882 27.7623 104.97 27.8524 106.029 27.6738C107.075 27.4685 108.07 27.0602 108.957 26.4723C109.844 25.8843 110.605 25.1282 111.198 24.2473C111.725 23.5291 112.1 22.7127 112.302 21.8469C112.504 20.9811 112.528 20.0837 112.374 19.2084C112.235 18.506 111.934 17.8454 111.494 17.2787C111.054 16.712 110.488 16.2548 109.84 15.9431C109.148 15.6173 108.396 15.4388 107.631 15.4191L107.57 15.3586ZM154.859 15.3586C153.704 15.3748 152.567 15.6504 151.534 16.1649C151.534 15.923 151.534 15.5803 151.149 15.5602C150.46 15.5602 149.791 15.5602 149.122 15.5602C148.967 15.5426 148.811 15.5852 148.687 15.679C148.562 15.7728 148.479 15.9107 148.453 16.0641C147.359 21.2038 146.264 26.3636 145.15 31.5033C145.15 31.725 145.028 31.9871 145.15 32.1685C145.359 32.3044 145.613 32.355 145.859 32.3096H147.764C147.9 32.2885 148.025 32.2239 148.12 32.1256C148.215 32.0274 148.275 31.9008 148.291 31.7654C148.656 30.1327 149.001 28.5001 149.345 26.8675C150.017 27.2516 150.759 27.4993 151.528 27.5961C152.297 27.693 153.078 27.6372 153.825 27.4319C155.242 27.055 156.526 26.2945 157.534 25.2349C158.536 24.2524 159.238 23.0089 159.561 21.6472C159.833 20.5153 159.755 19.3282 159.338 18.2409C159.03 17.5822 158.577 17.001 158.012 16.5404C157.447 16.0798 156.785 15.7517 156.075 15.5803C155.695 15.5003 155.308 15.4597 154.919 15.4594L154.859 15.3586ZM68.8548 15.5803H68.3886C66.8901 15.6994 65.4693 16.2928 64.3347 17.2734C62.8576 18.3861 61.8295 19.9876 61.4362 21.7883C61.2494 22.8147 61.3404 23.872 61.6997 24.852C61.9785 25.5395 62.4152 26.1527 62.9748 26.6427C63.5343 27.1326 64.2013 27.4857 64.9225 27.6738C66.5312 28.0005 68.2042 27.7506 69.6453 26.9683C69.6453 27.2102 69.6453 27.5528 70.0102 27.5931C70.6385 27.5931 71.3074 27.5931 72.0371 27.5931C72.1988 27.6007 72.3577 27.5497 72.4844 27.4496C72.6111 27.3495 72.6971 27.2072 72.7263 27.0489L74.9154 16.7494C74.9464 16.495 74.9464 16.2378 74.9154 15.9835C74.9154 15.7013 74.5303 15.6408 74.2871 15.6408C73.679 15.6408 73.0506 15.6408 72.4425 15.6408C71.8344 15.6408 71.9763 16.0238 71.8953 16.3261C70.9807 15.7781 69.9208 15.5181 68.8548 15.5803ZM185.547 15.5803C184.902 15.5754 184.26 15.6636 183.641 15.8424C181.868 16.3929 180.324 17.504 179.243 19.0068C178.661 19.7815 178.262 20.6767 178.076 21.6259C177.89 22.5751 177.922 23.5538 178.169 24.4892C178.383 25.1757 178.752 25.8048 179.247 26.3286C179.742 26.8524 180.351 27.2573 181.027 27.5125C181.889 27.7674 182.794 27.8487 183.688 27.7518C184.583 27.6549 185.449 27.3817 186.236 26.9482C186.236 27.1296 186.236 27.4117 186.439 27.5327C186.74 27.5935 187.05 27.5935 187.351 27.5327C187.823 27.5628 188.297 27.5628 188.77 27.5327C188.906 27.4978 189.027 27.42 189.114 27.311C189.202 27.202 189.252 27.0676 189.256 26.928L191.506 16.3059C191.532 16.2411 191.542 16.1711 191.535 16.1016C191.528 16.0322 191.505 15.9654 191.468 15.9065C191.43 15.8475 191.379 15.7983 191.319 15.7626C191.259 15.727 191.191 15.706 191.121 15.7013H189.135C188.749 15.7013 188.587 16.0641 188.506 16.3664C187.619 15.821 186.59 15.5477 185.547 15.5803ZM198.682 15.5803C197.74 15.5255 196.804 15.7651 196.006 16.2656C196.006 16.0641 196.006 15.8021 195.641 15.7819C194.932 15.7819 194.222 15.7819 193.614 15.7819C193.456 15.7915 193.307 15.8582 193.195 15.9696C193.083 16.081 193.016 16.2293 193.006 16.3866C192.256 19.934 191.486 23.4814 190.756 27.0288C190.726 27.0946 190.713 27.1668 190.718 27.2389C190.722 27.3109 190.745 27.3808 190.783 27.4424C190.821 27.504 190.873 27.5554 190.936 27.5922C190.998 27.629 191.069 27.6501 191.141 27.6536C191.709 27.6536 192.297 27.6536 192.864 27.6536C193.138 27.6714 193.414 27.6372 193.675 27.5528C193.766 27.4872 193.843 27.4029 193.899 27.3055C193.954 27.2082 193.989 27.1001 193.999 26.9885C194.445 24.9729 194.871 22.8565 195.317 20.7805C195.41 20.3829 195.599 20.0137 195.867 19.7047C196.135 19.3957 196.475 19.1562 196.857 19.0068C197.591 18.8185 198.351 18.7504 199.107 18.8053C199.253 18.7789 199.386 18.7052 199.485 18.5958C199.584 18.4864 199.643 18.3474 199.654 18.2006C199.796 17.4951 199.959 16.7897 200.1 16.0641C200.107 15.999 200.098 15.9334 200.076 15.8718C200.054 15.8103 200.018 15.7544 199.972 15.7082C199.925 15.662 199.869 15.6265 199.807 15.6044C199.745 15.5823 199.679 15.5741 199.614 15.5803H198.682ZM81.8679 15.5803C80.97 15.5645 80.0832 15.7797 79.2937 16.2052C79.2937 16.0238 79.2937 15.8021 78.9896 15.7819C78.3207 15.7819 77.6316 15.7819 76.9627 15.7819C76.8034 15.775 76.6472 15.8267 76.5238 15.9271C76.4004 16.0275 76.3185 16.1695 76.2938 16.3261C75.5235 19.8735 74.7938 23.4007 74.0236 26.9482C74.0236 27.1497 73.9222 27.3916 74.0236 27.5528C74.1249 27.7141 74.51 27.7141 74.7533 27.7342H76.5775C76.7372 27.7292 76.8889 27.6639 77.0019 27.5515C77.1149 27.4392 77.1805 27.2883 77.1856 27.1296C77.6316 25.114 78.0572 23.0984 78.4829 21.0828C78.6247 20.439 79.007 19.8728 79.5526 19.4986C80.0982 19.1245 80.7664 18.9703 81.422 19.0673C81.673 19.1236 81.9078 19.2365 82.1081 19.3973C82.3084 19.558 82.4689 19.7623 82.5773 19.9944C82.699 20.4022 82.699 20.8363 82.5773 21.2441C82.1719 23.2597 81.7463 25.2752 81.3206 27.1699C81.3206 27.3714 81.3206 27.5931 81.3206 27.7544C81.4055 27.8286 81.5059 27.8834 81.6145 27.9147C81.7231 27.9461 81.8373 27.9533 81.949 27.9358H83.9759C84.1224 27.9276 84.2613 27.8686 84.3687 27.7693C84.4761 27.6699 84.5451 27.5362 84.5638 27.3916C85.03 25.2752 85.4759 23.1387 85.9218 21.0224C86.2496 19.8937 86.1926 18.689 85.7597 17.5959C85.5208 17.1541 85.1889 16.7687 84.7867 16.4661C84.3844 16.1635 83.9212 15.9507 83.4287 15.8424C82.9225 15.6859 82.3976 15.5978 81.8679 15.5803ZM164.021 15.5803H162.906C162.755 15.599 162.615 15.6698 162.512 15.7803C162.408 15.8908 162.346 16.0341 162.338 16.185C161.872 18.3417 161.406 20.4782 160.96 22.6348C160.703 23.7072 160.81 24.8339 161.264 25.8396C161.54 26.2979 161.917 26.6882 162.366 26.9814C162.816 27.2745 163.326 27.463 163.858 27.5327C165.133 27.821 166.469 27.6495 167.629 27.0489C167.629 27.2303 167.629 27.452 167.953 27.452C168.662 27.452 169.392 27.452 170.122 27.452C170.268 27.4438 170.407 27.3849 170.514 27.2855C170.622 27.1861 170.691 27.0525 170.71 26.9078C171.459 23.4209 172.189 19.9541 172.939 16.4873C172.939 16.2455 173.101 15.9835 172.939 15.7416C172.777 15.4997 172.493 15.5803 172.25 15.5803H170.223C170.065 15.6035 169.92 15.6805 169.813 15.7981C169.706 15.9158 169.643 16.0668 169.635 16.2253C169.189 18.2409 168.764 20.3572 168.318 22.4131C168.19 23.0287 167.838 23.5755 167.329 23.9478C166.82 24.3201 166.19 24.4914 165.561 24.4287C165.324 24.4095 165.094 24.3358 164.89 24.2134C164.686 24.091 164.513 23.9232 164.385 23.7232C164.255 23.5188 164.167 23.29 164.129 23.0508C164.091 22.8116 164.102 22.5672 164.162 22.3325C164.608 20.3169 165.054 18.3014 165.48 16.2858C165.516 16.2183 165.536 16.1433 165.538 16.0667C165.539 15.9902 165.523 15.9143 165.489 15.8455C165.455 15.7766 165.406 15.7167 165.344 15.6706C165.283 15.6245 165.211 15.5936 165.135 15.5803H164.021ZM126.826 18.5432C127.274 18.5449 127.714 18.663 128.103 18.8859C128.381 19.0556 128.618 19.2847 128.797 19.5565C128.976 19.8284 129.092 20.1363 129.137 20.458C129.186 20.9998 129.116 21.5458 128.93 22.0574C128.744 22.569 128.447 23.0337 128.06 23.4183C127.673 23.803 127.206 24.0984 126.691 24.2834C126.177 24.4685 125.628 24.5387 125.083 24.4892C124.708 24.449 124.35 24.3152 124.042 24.1002C123.733 23.8852 123.485 23.596 123.319 23.2597C123.045 22.5596 123.045 21.7829 123.319 21.0828C123.543 20.4855 123.905 19.9494 124.377 19.5185C124.85 19.0875 125.418 18.774 126.035 18.6037L126.826 18.5432ZM140.042 18.5432C140.374 18.543 140.704 18.6045 141.015 18.7246C141.33 18.8535 141.612 19.0535 141.837 19.3088C142.062 19.5641 142.225 19.8677 142.312 20.196C142.4 20.6076 142.402 21.0328 142.318 21.4453C142.234 21.8578 142.067 22.2489 141.825 22.5945C141.528 23.066 141.127 23.4648 140.654 23.7614C140.18 24.0579 139.645 24.2447 139.089 24.3078C138.718 24.3497 138.342 24.3061 137.99 24.1803C137.639 24.0544 137.321 23.8498 137.062 23.5822C136.788 23.2455 136.605 22.8447 136.53 22.4178C136.456 21.9909 136.492 21.5522 136.636 21.1433C136.84 20.5738 137.17 20.0571 137.601 19.6315C138.033 19.2058 138.555 18.8821 139.129 18.6843C139.429 18.6165 139.735 18.5827 140.042 18.5835V18.5432ZM154.23 18.5432C154.677 18.5378 155.117 18.649 155.507 18.8657C155.79 19.0376 156.031 19.2694 156.213 19.5447C156.396 19.8199 156.514 20.1318 156.561 20.458C156.615 21.0006 156.547 21.5482 156.362 22.0615C156.177 22.5748 155.88 23.041 155.493 23.4265C155.105 23.812 154.636 24.1072 154.12 24.291C153.604 24.4747 153.053 24.5424 152.507 24.4892C152.12 24.4465 151.752 24.3028 151.438 24.0727C151.125 23.8427 150.879 23.5344 150.724 23.179C150.588 22.7922 150.533 22.3821 150.561 21.9734C150.589 21.5647 150.699 21.1658 150.886 20.8007C151.139 20.3002 151.498 19.8606 151.939 19.5125C152.38 19.1644 152.892 18.9161 153.44 18.7851C153.697 18.7079 153.962 18.6606 154.23 18.644V18.5432ZM106.799 18.5432C107.119 18.5413 107.436 18.6027 107.732 18.7238C108.028 18.845 108.297 19.0234 108.522 19.2487C108.827 19.605 109.028 20.0377 109.103 20.4997C109.178 20.9616 109.125 21.4352 108.948 21.8689C108.692 22.5891 108.221 23.2143 107.598 23.6609C106.975 24.1076 106.23 24.3544 105.462 24.3682C105.037 24.3591 104.624 24.2339 104.266 24.0063C103.908 23.7788 103.621 23.4577 103.435 23.0783C103.269 22.6403 103.208 22.1699 103.257 21.7045C103.306 21.239 103.464 20.7915 103.719 20.3976C103.991 19.9428 104.355 19.5488 104.787 19.2401C105.22 18.9315 105.711 18.7148 106.232 18.6037C106.423 18.6067 106.613 18.6269 106.799 18.6642V18.5432ZM68.1454 18.5432C68.5802 18.519 69.0137 18.6094 69.4021 18.8053C69.7432 18.9723 70.0337 19.2263 70.2438 19.5415C70.4539 19.8567 70.5761 20.2216 70.598 20.5991C70.6265 21.397 70.398 22.1831 69.946 22.8429C69.4939 23.5027 68.8418 24.0018 68.0846 24.2674C67.6748 24.4555 67.2261 24.5445 66.7752 24.5269C66.3242 24.5094 65.8838 24.386 65.4901 24.1667C65.2234 23.9876 65.0034 23.7479 64.8483 23.4676C64.6932 23.1872 64.6075 22.8741 64.5982 22.5542C64.5625 21.7088 64.8155 20.8763 65.316 20.1919C65.8165 19.5076 66.535 19.0118 67.3549 18.7851C67.6137 18.7219 67.8789 18.6881 68.1454 18.6843V18.5432ZM54.2607 18.5432C54.7818 18.5163 55.2986 18.6501 55.7404 18.9262C56.0042 19.1012 56.2275 19.3301 56.3953 19.5978C56.5631 19.8654 56.6715 20.1656 56.7133 20.4782C56.7632 21.02 56.6926 21.566 56.5065 22.0776C56.3204 22.5892 56.0233 23.0538 55.6365 23.4385C55.2496 23.8232 54.7824 24.1185 54.2679 24.3036C53.7534 24.4887 53.2043 24.5589 52.6594 24.5093C52.288 24.4677 51.9333 24.3331 51.6284 24.1181C51.3235 23.9031 51.0785 23.6146 50.9162 23.2798C50.7613 22.8852 50.6902 22.463 50.7077 22.0398C50.7251 21.6165 50.8307 21.2015 51.0176 20.8208C51.2746 20.2752 51.6555 19.7963 52.1304 19.4221C52.6053 19.0478 53.1611 18.7884 53.754 18.6642C53.9231 18.6517 54.0931 18.6585 54.2607 18.6843V18.5432ZM184.959 18.5432C185.482 18.5416 185.993 18.7038 186.418 19.0068C186.674 19.2078 186.882 19.4615 187.029 19.7503C187.176 20.0391 187.258 20.3562 187.27 20.6797C187.322 21.4371 187.14 22.1922 186.749 22.8441C186.358 23.496 185.776 24.0137 185.081 24.3279C184.677 24.5125 184.238 24.6081 183.794 24.6081C183.349 24.6081 182.91 24.5125 182.506 24.3279C182.182 24.1756 181.904 23.9405 181.702 23.6466C181.499 23.3527 181.378 23.0105 181.351 22.655C181.289 21.7724 181.544 20.8966 182.071 20.184C182.599 19.4714 183.363 18.9684 184.229 18.7649C184.425 18.7451 184.622 18.7451 184.817 18.7649L184.959 18.5432Z" fill="#0C863D"/>
</g>
<defs>
<clipPath id="clip0_1_558">
<rect width="200" height="35.1515" fill="white"/>
</clipPath>
</defs>
</svg>
