<svg width="85" height="70" viewBox="0 0 85 70" fill="none" xmlns="http://www.w3.org/2000/svg">
<g clip-path="url(#clip0_1_461)">
<path d="M51.4303 7.42107L77.0914 33.0486L84.3143 25.8351L58.6532 0.207608L51.4303 7.42107Z" fill="#8797DC"/>
<path d="M25.6542 0.0146695L-0.00689697 25.6422L7.21603 32.8556L32.8771 7.22813L25.6542 0.0146695Z" fill="#6BD975"/>
<path d="M38.0733 69.9997C36.6577 70.0012 35.2905 69.4851 34.2298 68.5488C33.1691 67.6125 32.4883 66.3208 32.3159 64.9176C31.4947 64.9609 30.6735 64.8314 29.9057 64.5374C29.1378 64.2434 28.4403 63.7916 27.8585 63.2112C26.8676 62.2154 26.2622 60.901 26.1499 59.5016C24.747 59.3958 23.4288 58.7902 22.4354 57.7952C21.8906 57.2569 21.4588 56.6155 21.1654 55.9084C20.872 55.2013 20.7228 54.4429 20.7268 53.6775C19.3255 53.5951 18.0035 53.0009 17.0123 52.0082C15.928 50.9113 15.3201 49.4319 15.3201 47.8906C15.3201 46.3492 15.928 44.8698 17.0123 43.7729L18.5724 42.252L21.1725 44.8858L19.6496 46.4067C19.2594 46.8023 19.0407 47.3353 19.0407 47.8906C19.0407 48.4458 19.2594 48.9788 19.6496 49.3744C19.8406 49.5765 20.0709 49.7375 20.3264 49.8475C20.5819 49.9576 20.8571 50.0143 21.1354 50.0143C21.4136 50.0143 21.6889 49.9576 21.9444 49.8475C22.1999 49.7375 22.4302 49.5765 22.6212 49.3744L24.1812 47.8534L26.8185 50.4873L24.9241 52.3792C24.7217 52.5693 24.561 52.7994 24.4523 53.0548C24.3436 53.3103 24.2892 53.5855 24.2927 53.863C24.2936 54.1399 24.35 54.4138 24.4584 54.6686C24.5668 54.9234 24.7252 55.154 24.9241 55.3468C25.3202 55.7365 25.8539 55.9549 26.4099 55.9549C26.9659 55.9549 27.4996 55.7365 27.8957 55.3468L29.7901 53.4549L32.4273 56.0887L30.533 57.9806C30.3306 58.1714 30.1694 58.4013 30.0592 58.6565C29.949 58.9116 29.8922 59.1866 29.8922 59.4645C29.8922 59.7424 29.949 60.0173 30.0592 60.2724C30.1694 60.5276 30.3306 60.7576 30.533 60.9483C30.9291 61.338 31.4627 61.5564 32.0187 61.5564C32.5747 61.5564 33.1084 61.338 33.5045 60.9483L33.9131 60.5403L35.2875 59.1306L37.9247 61.7644L36.4761 63.2112C36.097 63.605 35.8853 64.1301 35.8853 64.6765C35.8853 65.2228 36.097 65.7479 36.4761 66.1417C36.8869 66.5171 37.4236 66.7253 37.9805 66.7253C38.5373 66.7253 39.074 66.5171 39.4848 66.1417L40.8591 64.7321L43.4964 67.3659L42.0849 68.7755C40.946 69.6664 39.5163 70.1027 38.0733 69.9997Z" fill="black"/>
<path d="M46.022 69.5547C45.2556 69.5586 44.4961 69.4097 43.7881 69.1167C43.0801 68.8237 42.4378 68.3924 41.8989 67.8482L17.0492 43.0311C16.6295 42.6135 16.2981 42.1159 16.0747 41.5678C15.8514 41.0198 15.7407 40.4325 15.7491 39.8408V38.0602C15.7402 37.8368 15.6473 37.6249 15.4891 37.4667L9.21167 31.0491L30.4584 9.79315L54.2309 10.0157L75.4776 31.2346L69.0516 37.6522C68.8933 37.8104 68.8005 38.0223 68.7916 38.2457V40.0263C68.7964 41.2012 68.3435 42.332 67.5286 43.1795L67.9372 43.6246C68.6269 44.314 69.1324 45.1652 69.4074 46.1002C69.6823 47.0352 69.7179 48.0243 69.511 48.9766C69.304 49.9289 68.861 50.8142 68.2227 51.5513C67.5843 52.2883 66.771 52.8536 65.8571 53.1954C66.2454 53.9931 66.4486 54.868 66.4515 55.755C66.4546 56.5147 66.305 57.2674 66.0115 57.9683C65.718 58.6693 65.2866 59.3042 64.7428 59.8355C64.0081 60.5694 63.0905 61.0939 62.0848 61.3547C61.0791 61.6156 60.0219 61.6034 59.0226 61.3194C58.8148 62.08 58.4547 62.7905 57.9639 63.408C57.4731 64.0254 56.8618 64.537 56.1673 64.9115C55.4727 65.2861 54.7092 65.516 53.923 65.5872C53.1368 65.6584 52.3444 65.5694 51.5936 65.3257C51.336 66.2854 50.8225 67.1571 50.1078 67.8482C49.5758 68.3913 48.94 68.8222 48.2382 69.1153C47.5363 69.4084 46.7827 69.5578 46.022 69.5547ZM14.3005 31.0491L18.0149 34.7587C18.4391 35.1826 18.7756 35.6858 19.005 36.2395C19.2344 36.7933 19.3524 37.3868 19.3521 37.986V39.7666C19.3543 39.9845 19.4332 40.1946 19.575 40.3602L44.4247 65.1774C44.8356 65.5527 45.3722 65.7609 45.9291 65.7609C46.4859 65.7609 47.0226 65.5527 47.4334 65.1774C47.826 64.7755 48.0456 64.2363 48.0456 63.6749C48.0456 63.1136 47.826 62.5744 47.4334 62.1726L35.8072 50.5616L38.4073 47.9278L51.6308 61.171C52.0248 61.5744 52.5632 61.8049 53.1274 61.8118C53.6917 61.8188 54.2356 61.6016 54.6395 61.2081C55.0434 60.8146 55.2742 60.2769 55.2812 59.7134C55.2881 59.1499 55.0707 58.6067 54.6766 58.2033L41.416 44.9601L44.0161 42.3263L57.4996 55.6437L59.0597 57.2017C59.4558 57.5914 59.9895 57.8098 60.5455 57.8098C61.1015 57.8098 61.6352 57.5914 62.0313 57.2017C62.2302 57.0089 62.3886 56.7783 62.497 56.5235C62.6054 56.2687 62.6618 55.9948 62.6627 55.7179C62.6646 55.4351 62.6098 55.1548 62.5013 54.8935C62.3928 54.6323 62.233 54.3954 62.0313 54.197L47.1734 39.3586L49.8107 36.7248L62.217 49.1519C62.6159 49.5504 63.1571 49.7742 63.7213 49.7742C64.2856 49.7742 64.8267 49.5504 65.2257 49.1519C65.6247 48.7535 65.8488 48.213 65.8488 47.6495C65.8488 47.086 65.6247 46.5456 65.2257 46.1471L46.6534 27.5992C45.8023 26.7545 45.3215 25.6072 45.3162 24.4089V22.7767C45.3162 22.5603 45.2301 22.3527 45.0768 22.1996C44.9236 22.0466 44.7157 21.9606 44.499 21.9606C43.9418 21.9606 43.719 21.9606 43.5704 22.1832L36.4386 29.4911C35.3357 30.5651 33.8561 31.1662 32.3156 31.1662C30.7751 31.1662 29.2955 30.5651 28.1925 29.4911C27.1083 28.3941 26.5003 26.9148 26.5003 25.3734C26.5003 23.832 27.1083 22.3527 28.1925 21.2558L36.0301 13.4285H31.8327L14.3005 31.0491ZM44.0161 18.4736C44.6393 18.4333 45.2642 18.52 45.8528 18.7284C46.4414 18.9367 46.9814 19.2625 47.44 19.6858C47.8986 20.1091 48.2662 20.6212 48.5205 21.1908C48.7748 21.7604 48.9105 22.3757 48.9192 22.9993V24.6315C48.9337 24.8428 49.0264 25.0411 49.1792 25.1879L64.9285 40.6199C64.9802 40.4506 64.9802 40.2698 64.9285 40.1005V38.3199C64.9321 37.1104 65.4125 35.9509 66.2657 35.0926L69.9802 31.383L52.4108 13.8366H41.2674L30.867 24.2235C30.4744 24.6253 30.2548 25.1645 30.2548 25.7258C30.2548 26.2872 30.4744 26.8264 30.867 27.2282C31.2717 27.601 31.8021 27.808 32.3527 27.808C32.9034 27.808 33.4338 27.601 33.8385 27.2282L41.0446 20.0316C41.4301 19.5542 41.9088 19.1601 42.4515 18.8731C42.9943 18.5862 43.5898 18.4124 44.2018 18.3623L44.0161 18.4736Z" fill="black"/>
</g>
<defs>
<clipPath id="clip0_1_461">
<rect width="84.3182" height="70" fill="white"/>
</clipPath>
</defs>
</svg>
