<svg width="89" height="70" viewBox="0 0 89 70" fill="none" xmlns="http://www.w3.org/2000/svg">
<g clip-path="url(#clip0_1_466)">
<path d="M3.95258 23.6586L66.1866 3.84917C70.5077 2.46354 74.6707 3.28466 75.4611 5.69669L85.8422 36.0266C86.6327 38.4386 83.7871 41.4665 79.466 42.8521L17.1793 62.7128L3.95258 23.6586Z" fill="white"/>
<path d="M73.3018 2.74329L2.18024 25.3956L5.63645 35.6876L76.758 13.0353L73.3018 2.74329Z" fill="#6BD975"/>
<path d="M37.9932 25.249L77.3572 12.727L37.9932 25.249Z" fill="#C9D8E6"/>
<path d="M51.2744 41.0049L56.544 39.414L51.2744 41.0049Z" fill="#C9D8E6"/>
<path d="M61.3379 37.7702L66.6075 36.1792L61.3379 37.7702Z" fill="#C9D8E6"/>
<path d="M71.3502 34.5889L76.3563 32.998L71.3502 34.5889Z" fill="#C9D8E6"/>
<path d="M77.9914 4.87499L88.1618 35.1023C88.7602 36.8989 88.6025 38.8534 87.7233 40.537C86.8441 42.2206 85.3152 43.4959 83.4718 44.0832L46.5846 55.8354L44.951 50.7034L81.8383 38.9512C82.098 38.8758 82.3393 38.7499 82.5475 38.581C82.7558 38.4121 82.9267 38.2038 83.0499 37.9687C83.173 37.7335 83.246 37.4765 83.2641 37.2132C83.2823 36.9498 83.2454 36.6856 83.1557 36.4366L72.9853 6.05534C72.8051 5.56044 72.4369 5.15162 71.9566 4.91297C71.4763 4.67433 70.9205 4.624 70.4032 4.77235L33.516 16.5759L31.8823 11.7005L68.7696 -0.103018C69.7106 -0.376413 70.6983 -0.464077 71.6746 -0.360885C72.6509 -0.257692 73.5962 0.034287 74.4551 0.497934C75.3141 0.961581 76.0692 1.58756 76.6765 2.33918C77.2837 3.0908 77.7308 3.95292 77.9914 4.87499Z" fill="black"/>
<path d="M76.5325 10.3486L35.813 23.3178L37.451 28.1955L78.1705 15.2263L76.5325 10.3486Z" fill="black"/>
<path d="M55.4968 37.001L50.4882 38.5963L52.1262 43.474L57.1348 41.8788L55.4968 37.001Z" fill="black"/>
<path d="M45.0035 23.042L5.63956 35.564L45.0035 23.042Z" fill="#C9D8E6"/>
<path d="M43.6852 43.3643L38.4156 44.9552L43.6852 43.3643Z" fill="#C9D8E6"/>
<path d="M33.7779 46.5478L28.5083 48.1387L33.7779 46.5478Z" fill="#C9D8E6"/>
<path d="M23.7659 49.729L18.7598 51.3712L23.7659 49.729Z" fill="#C9D8E6"/>
<path d="M0.368138 29.6105L10.5912 59.9404C11.1942 61.7356 12.5037 63.2246 14.2325 64.0809C15.9612 64.9371 17.9682 65.0906 19.813 64.5078L56.7003 52.7043L55.0667 47.5723L18.1794 59.3759C17.9237 59.4633 17.6524 59.4992 17.382 59.4815C17.1115 59.4638 16.8477 59.3928 16.6063 59.2729C16.3648 59.1529 16.1509 58.9865 15.9775 58.7836C15.804 58.5808 15.6747 58.3458 15.5973 58.0929L5.37425 27.763C5.20803 27.2593 5.25331 26.7121 5.50017 26.2409C5.74703 25.7697 6.1754 25.4128 6.69165 25.2483L43.5789 13.4448L41.9454 8.56943L5.05809 20.3729C4.11487 20.6616 3.24139 21.1332 2.49034 21.7594C1.73929 22.3856 1.12621 23.1534 0.688 24.0166C0.249785 24.8797 -0.00450032 25.8203 -0.0594714 26.7817C-0.114442 27.743 0.031033 28.7053 0.368138 29.6105Z" fill="black"/>
<path d="M45.5536 20.2633L4.83398 33.2325L6.472 38.1103L47.1916 25.141L45.5536 20.2633Z" fill="black"/>
<path d="M43.0066 41.044L37.998 42.6392L39.6361 47.517L44.6446 45.9217L43.0066 41.044Z" fill="black"/>
<path d="M32.9772 44.2252L27.9687 45.8204L29.6067 50.6981L34.6152 49.1029L32.9772 44.2252Z" fill="black"/>
<path d="M22.948 47.4063L17.9395 49.0015L19.5775 53.8793L24.586 52.284L22.948 47.4063Z" fill="black"/>
<path d="M88.5294 64.8682H0V70.0002H88.5294V64.8682Z" fill="black"/>
</g>
<defs>
<clipPath id="clip0_1_466">
<rect width="88.5294" height="70" fill="white"/>
</clipPath>
</defs>
</svg>
